<?xml version="1.0" encoding="UTF-8" standalone="no"?><!DOCTYPE svg PUBLIC "-//W3C//DTD SVG 1.1//EN" "http://www.w3.org/Graphics/SVG/1.1/DTD/svg11.dtd"><svg width="100%" height="100%" viewBox="0 0 5334 1471" version="1.1" xmlns="http://www.w3.org/2000/svg" xmlns:xlink="http://www.w3.org/1999/xlink" xml:space="preserve" xmlns:serif="http://www.serif.com/" style="fill-rule:evenodd;clip-rule:evenodd;stroke-linejoin:round;stroke-miterlimit:2;"><g fill="#ffffff"><path fill="#ffffff" d="M373.061,49.288c78.501,0 147.28,21.347 206.339,64.041c59.059,42.694 105.279,102.81 138.66,180.346c33.381,77.537 50.072,167.832 50.072,270.887c0,103.055 -16.691,193.105 -50.072,270.151c-33.381,77.046 -79.601,137.161 -138.66,180.346c-59.059,43.185 -127.258,55.375 -205.758,55.375l-235.502,1.094l-1.681,-35.858l236.602,0c63.094,0 117.934,-19.63 164.521,-58.889c46.587,-39.259 82.903,-94.222 108.947,-164.888c26.045,-70.666 39.067,-153.11 39.067,-247.332c0,-94.222 -13.022,-176.666 -39.067,-247.332c-26.045,-70.666 -62.544,-125.629 -109.497,-164.888c-46.954,-39.259 -101.611,-58.889 -163.971,-58.889l-247.607,0l0,-44.166l247.607,0Zm-216.794,0l-18.127,1022.242l-53.404,-1.094l0,-1021.148l71.531,0Zm-68.229,923.079l-3.301,98.069l-84.737,-5.32l14.306,0c19.075,0 35.399,-9.079 48.971,-27.236c13.573,-18.157 20.726,-39.995 21.459,-65.514l3.301,0Zm0,-815.607l-3.301,0c0,-25.518 -6.97,-47.356 -20.909,-65.514c-13.939,-18.157 -30.446,-27.236 -49.521,-27.236l-13.206,0l-1.1,-14.722l88.038,0l0,107.472Z" style="fill-rule:nonzero;"/><path fill="#ffffff" d="M1038.343,1070.436l-223.188,-0.595c0,0 3.049,-19.197 8.551,-22.142c5.502,-2.944 11.188,-5.398 17.057,-7.361c15.407,-4.907 27.145,-11.042 35.215,-18.403c8.07,-7.361 12.105,-19.875 12.105,-37.541l0,-319.471c0,-26.5 -3.485,-50.055 -10.455,-70.666c-6.97,-20.611 -19.992,-32.879 -39.067,-36.805c-3.668,-0.981 -6.419,-2.944 -8.254,-5.889c-1.834,-2.944 -2.751,-7.361 -2.751,-13.25c0,-10.796 3.301,-16.685 9.904,-17.667c29.346,-8.833 53.556,-20.856 72.631,-36.069c19.075,-15.213 33.381,-27.727 42.919,-37.541c6.603,-6.87 11.738,-10.306 15.407,-10.306c4.402,0 6.603,2.454 6.603,7.361c0,7.852 -0.917,23.31 -2.751,46.375c-1.834,23.065 -3.485,48.583 -4.952,76.555c-1.467,27.972 -2.201,53.245 -2.201,75.819l0,341.554c0,16.685 4.218,28.954 12.655,36.805c8.437,7.852 19.992,14.231 34.665,19.139c5.869,1.963 11.555,4.417 17.057,7.361c5.502,2.944 8.848,14.885 8.848,22.736Zm-112.843,-754.427l-55.024,-73.611l55.024,-75.083l56.124,75.083l-56.124,73.611Z" style="fill-rule:nonzero;"/><path fill="#ffffff" d="M1238.615,1070.436c-22.743,0 -65.508,4.518 -85.317,-4.806c-19.809,-9.324 -36.683,-22.329 -50.622,-39.014c-3.668,-10.796 -6.419,-28.954 -8.254,-54.472c-1.834,-25.518 -3.118,-46.62 -3.852,-63.305c0,-8.833 4.769,-13.25 14.306,-13.25c2.935,0 5.686,0.736 8.254,2.208c2.568,1.472 4.218,4.171 4.952,8.097c9.537,48.092 24.761,82.444 45.67,103.055c20.909,20.611 42.001,30.917 63.277,30.917c21.276,0 39.434,-9.569 54.474,-28.708c15.04,-19.139 22.56,-42.94 22.56,-71.402c0,-26.5 -6.603,-49.319 -19.809,-68.458c-13.206,-19.139 -36.316,-42.449 -69.33,-69.93c-24.944,-20.611 -45.12,-40.241 -60.526,-58.889c-15.407,-18.648 -26.595,-37.787 -33.565,-57.416c-6.97,-19.63 -10.455,-41.713 -10.455,-66.25c0,-31.407 5.502,-59.87 16.507,-85.388c11.005,-25.518 27.512,-45.884 49.521,-61.097c22.01,-15.213 49.521,-22.819 82.536,-22.819c22.01,0 40.351,2.944 55.024,8.833c14.673,5.889 25.678,12.268 33.014,19.139c5.869,10.796 10.821,27.727 14.856,50.791c4.035,23.065 6.053,44.903 6.053,65.514c0,6.87 -3.668,10.306 -11.005,10.306c-4.402,0 -8.62,-1.227 -12.655,-3.681c-4.035,-2.454 -6.786,-5.643 -8.254,-9.569c-9.537,-32.389 -21.459,-57.171 -35.765,-74.347c-14.306,-17.176 -32.097,-25.764 -53.373,-25.764c-18.341,0 -34.665,7.361 -48.971,22.083c-14.306,14.722 -21.459,36.315 -21.459,64.777c0,22.574 5.319,42.694 15.957,60.361c10.638,17.667 30.63,37.787 59.976,60.361c42.552,32.389 74.282,62.569 95.191,90.541c20.909,27.972 31.364,65.023 31.364,111.152c0,53 -15.04,96.185 -45.12,129.555c-23.217,25.757 -39.174,37.494 -67.039,40.875c-8.237,0.999 -17.242,0 -28.122,0Z" style="fill-rule:nonzero;"/><path fill="#ffffff" d="M1648.513,1070.436c-36.683,0 -69.88,-10.195 -99.593,-35.223c-29.713,-25.028 -53.19,-59.379 -70.43,-103.055c-17.241,-43.676 -25.861,-92.504 -25.861,-146.485c0,-63.796 10.455,-121.703 31.364,-173.721c20.909,-52.018 48.971,-93.486 84.186,-124.402c35.215,-30.917 74.099,-46.375 116.65,-46.375c47.687,0 89.505,17.176 125.454,51.528c8.804,8.833 13.206,18.157 13.206,27.972c0,7.852 -2.568,16.685 -7.703,26.5c-5.136,9.815 -11.372,17.912 -18.708,24.292c-7.337,6.38 -14.306,9.569 -20.909,9.569c-3.668,0 -7.337,-1.718 -11.005,-5.153c-3.668,-3.435 -7.703,-7.116 -12.105,-11.042c-16.14,-16.685 -34.115,-32.389 -53.923,-47.111c-19.809,-14.722 -36.316,-22.083 -49.521,-22.083c-35.949,0 -65.111,22.329 -87.488,66.986c-22.376,44.657 -33.565,103.3 -33.565,175.93c0,46.129 7.52,87.842 22.56,125.138c15.04,37.296 35.215,66.74 60.526,88.333c25.311,21.592 53.373,32.389 84.186,32.389c21.276,0 39.617,-4.662 55.024,-13.986c15.407,-9.324 31.914,-25.764 49.521,-49.319c1.467,-1.963 3.301,-3.681 5.502,-5.153c2.201,-1.472 4.035,-2.208 5.502,-2.208c8.07,0 12.105,6.87 12.105,20.611c0,5.889 -1.284,12.514 -3.852,19.875c-2.568,7.361 -6.786,15.949 -12.655,25.764c-11.738,19.63 -25.678,36.56 -41.818,50.791c-16.14,14.231 -33.931,24.782 -53.373,31.653c-19.442,6.87 -40.534,7.987 -63.277,7.987Z" style="fill-rule:nonzero;"/><path fill="#ffffff" d="M2098.959,1070.436c-41.084,0 -79.586,-3.579 -112.6,-29.098c-33.014,-25.518 -59.242,-60.606 -78.684,-105.263c-19.442,-44.657 -29.163,-95.449 -29.163,-152.374c0,-41.222 6.053,-81.463 18.158,-120.722c12.105,-39.259 29.163,-75.083 51.172,-107.472c22.01,-32.389 47.687,-58.152 77.033,-77.291c29.346,-19.139 60.893,-28.708 94.641,-28.708c42.552,0 80.885,13.741 115,41.222c34.115,27.481 61.26,63.551 81.435,108.208c20.175,44.657 30.263,93.486 30.263,146.485c0,56.926 -9.354,110.907 -28.062,161.944c-18.708,51.037 -46.403,92.504 -83.086,124.402c-36.683,31.898 -81.084,38.667 -136.108,38.667Zm21.658,-34.986c24.944,0 47.32,-6.38 67.129,-19.139c19.809,-12.759 35.215,-33.37 46.22,-61.833c8.804,-22.574 14.673,-50.055 17.608,-82.444c2.935,-32.389 4.402,-62.814 4.402,-91.277c0,-47.111 -6.419,-92.504 -19.258,-136.18c-12.839,-43.676 -30.813,-79.5 -53.923,-107.472c-23.11,-27.972 -50.438,-41.958 -81.985,-41.958c-19.809,0 -37.6,4.171 -53.373,12.514c-15.773,8.343 -30.263,23.801 -43.469,46.375c-14.673,24.537 -24.21,54.472 -28.612,89.805c-4.402,35.333 -6.603,70.666 -6.603,105.999c0,48.092 6.603,93.976 19.809,137.652c13.206,43.676 31.18,79.254 53.923,106.736c22.743,27.481 48.788,41.222 78.134,41.222Z" style="fill-rule:nonzero;"/><path fill="#ffffff" d="M2651.046,53.901l-0.581,1017.629l-70.95,-1.094l0,-1016.535l71.531,0Zm282.822,-5.889l0,44.166l-637.175,0l0,-44.166l637.175,0Zm0,39.75l0,119.249l-11.005,-1.472l0,-25.028c0,-24.537 -6.419,-45.148 -19.258,-61.833c-12.839,-16.685 -28.062,-25.518 -45.67,-26.5l0,-4.417l75.933,0Zm0,-66.25l0,42.694l-134.258,-16.194c16.14,0 33.198,-1.472 51.172,-4.417c17.974,-2.944 34.665,-6.38 50.072,-10.306c15.407,-3.926 26.411,-7.852 33.014,-11.778Zm-351.052,951.051l0,97.873l-88.038,1.094l0,-6.218l14.306,0c19.075,0 35.399,-9.079 48.971,-27.236c13.573,-18.157 20.726,-39.995 21.459,-65.514l3.301,0Zm64.928,0l3.301,0c0.734,25.518 7.887,47.356 21.459,65.514c13.573,18.157 29.896,27.236 48.971,27.236l14.306,0l-0.581,6.218l-88.038,0l0.581,-98.968Zm-275.119,-884.801l0,4.417c-18.341,0.981 -33.748,9.815 -46.22,26.5c-12.472,16.685 -18.708,37.296 -18.708,61.833l0,25.028l-11.005,1.472l0,-119.249l75.933,0Zm-75.933,-66.25c7.337,3.926 18.525,7.852 33.565,11.778c15.04,3.926 31.73,7.361 50.072,10.306c18.341,2.944 35.215,4.417 50.622,4.417l-134.258,16.194l0,-42.694Z" style="fill-rule:nonzero;"/><path fill="#ffffff" d="M2974.005,1071.53l-40.345,-1.094c0,0 -45.012,-11.736 -64.72,-29.098c-30.08,-26.5 -53.556,-64.041 -70.43,-112.624c-16.874,-48.583 -25.311,-104.773 -25.311,-168.569c0,-56.926 9.721,-108.699 29.163,-155.319c19.442,-46.62 45.303,-84.162 77.584,-112.624c32.281,-28.463 67.496,-42.694 105.646,-42.694c29.346,0 55.391,7.852 78.134,23.555c22.743,15.704 40.534,37.541 53.373,65.514c12.839,27.972 19.258,60.115 19.258,96.43c0,30.426 -11.005,45.639 -33.014,45.639l-232.2,0c-10.271,0 -17.424,3.681 -21.459,11.042c-4.035,7.361 -6.053,21.838 -6.053,43.43c0,47.111 7.703,90.05 23.11,128.819c15.407,38.768 35.949,69.685 61.627,92.75c25.678,23.065 53.923,34.597 84.737,34.597c22.01,0 42.001,-5.643 59.976,-16.93c17.974,-11.287 33.931,-27.727 47.871,-49.319c2.935,-4.907 5.136,-8.097 6.603,-9.569c1.467,-1.472 3.301,-2.208 5.502,-2.208c5.869,0 8.804,4.907 8.804,14.722c0,18.648 -6.603,39.259 -19.809,61.833c-11.005,18.648 -24.21,34.842 -39.617,48.583c-15.407,13.741 -50.622,33.136 -50.622,33.136l-57.806,0Zm-100.663,-436.523l100.143,0c17.608,0 32.647,-0.491 45.12,-1.472c12.472,-0.981 24.577,-2.944 36.316,-5.889c3.668,-0.981 6.053,-4.171 7.153,-9.569c1.1,-5.398 1.651,-13.005 1.651,-22.819c0,-28.463 -9.354,-52.754 -28.062,-72.875c-18.708,-20.12 -40.901,-30.18 -66.579,-30.18c-16.874,0 -33.748,6.625 -50.622,19.875c-16.874,13.25 -30.813,29.69 -41.818,49.319c-11.005,19.63 -16.507,39.259 -16.507,58.889c0,9.815 4.402,14.722 13.206,14.722Z" style="fill-rule:nonzero;"/><path fill="#ffffff" d="M3417.351,1070.436l-222.296,0l7.879,-37.931c0,0 10.821,-5.889 18.158,-8.833c10.271,-4.907 20.726,-10.551 31.364,-16.93c10.638,-6.38 15.957,-19.384 15.957,-39.014l0,-316.526c0,-26.5 -2.201,-49.81 -6.603,-69.93c-4.402,-20.12 -16.14,-32.143 -35.215,-36.069c-2.935,-0.981 -5.319,-2.944 -7.153,-5.889c-1.834,-2.944 -2.751,-7.361 -2.751,-13.25c0,-9.815 2.935,-15.704 8.804,-17.667c19.809,-6.87 35.582,-13.986 47.32,-21.347c11.738,-7.361 22.193,-15.704 31.364,-25.028c9.171,-9.324 20.359,-19.384 33.565,-30.18c1.467,-0.981 2.935,-2.208 4.402,-3.681c1.467,-1.472 3.301,-2.208 5.502,-2.208c4.402,0 6.603,3.435 6.603,10.306c0,6.87 -0.917,20.856 -2.751,41.958c-1.834,21.102 -2.751,38.523 -2.751,52.264c0,9.815 0.734,15.704 2.201,17.667l2.201,0c16.874,-21.592 39.067,-43.43 66.579,-65.514c27.512,-22.083 62.544,-33.125 105.095,-33.125c26.411,0 48.421,7.606 66.029,22.819c17.608,15.213 32.281,41.467 44.019,78.763l3.301,0c23.477,-28.463 50.255,-52.509 80.335,-72.139c30.08,-19.63 63.094,-29.444 99.043,-29.444c24.21,0 44.386,9.815 60.526,29.444c16.14,19.63 28.429,45.148 36.866,76.555c8.437,31.407 12.655,64.287 12.655,98.638l0,313.582c0,19.63 5.136,32.634 15.407,39.014c10.271,6.38 20.909,12.023 31.914,16.93c7.337,2.944 18.158,8.833 18.158,8.833l6.427,37.931l-222.296,0c0,-7.852 7.879,-39.403 7.879,-39.403c0,0 10.821,-5.398 18.158,-7.361c11.738,-3.926 22.56,-9.324 32.464,-16.194c9.904,-6.87 14.856,-20.12 14.856,-39.75l0,-309.165c0,-23.555 -4.035,-45.884 -12.105,-66.986c-8.07,-21.102 -18.708,-38.523 -31.914,-52.264c-13.206,-13.741 -27.879,-20.611 -44.019,-20.611c-18.341,0 -35.399,2.944 -51.172,8.833c-15.773,5.889 -30.63,16.194 -44.569,30.917c-20.542,21.592 -30.813,56.926 -30.813,105.999l0,303.276c0,19.63 5.502,32.879 16.507,39.75c11.005,6.87 22.01,12.268 33.014,16.194c7.337,1.963 18.158,8.097 18.158,8.097l6.427,38.667l-225.598,0l8.98,-38.667c0,0 11.188,-5.153 17.057,-8.097c11.005,-4.907 21.826,-10.551 32.464,-16.93c10.638,-6.38 15.957,-19.384 15.957,-39.014l0,-309.165c0,-23.555 -4.035,-45.884 -12.105,-66.986c-8.07,-21.102 -18.708,-38.523 -31.914,-52.264c-13.206,-13.741 -27.879,-20.611 -44.019,-20.611c-18.341,0 -35.399,2.944 -51.172,8.833c-15.773,5.889 -30.63,16.194 -44.569,30.917c-19.809,19.63 -29.713,54.963 -29.713,105.999l0,303.276c0,19.63 5.136,32.634 15.407,39.014c10.271,6.38 20.909,12.023 31.914,16.93c5.869,2.944 17.057,8.097 17.057,8.097l7.528,38.667Z" style="fill-rule:nonzero;"/><path fill="#ffffff" d="M4285.252,1470.912l-239.732,-1.859l9.183,-20.648c0,0 11.188,-6.625 17.057,-9.569c11.005,-4.907 21.643,-10.551 31.914,-16.93c10.271,-6.38 15.407,-19.384 15.407,-39.014l0,-746.413c0,-7.852 -1.651,-19.63 -4.952,-35.333c-3.301,-15.704 -8.62,-30.917 -15.957,-45.639c-7.337,-14.722 -17.241,-23.555 -29.713,-26.5c-2.935,-0.981 -5.136,-3.435 -6.603,-7.361c-1.467,-3.926 -2.201,-7.852 -2.201,-11.778c0,-4.907 0.734,-8.833 2.201,-11.778c1.467,-2.944 3.301,-4.907 5.502,-5.889c27.879,-8.833 51.722,-18.403 71.531,-28.708c19.809,-10.306 38.517,-20.366 56.124,-30.18c0.734,0 1.1,-0.245 1.1,-0.736c0,-0.491 0.367,-0.736 1.1,-0.736c1.467,0 2.935,1.472 4.402,4.417c1.467,2.944 2.201,5.889 2.201,8.833c0,8.833 -0.917,22.819 -2.751,41.958c-1.834,19.139 -2.751,34.597 -2.751,46.375c0,7.852 0.367,12.268 1.1,13.25c7.337,-9.815 20.726,-22.329 40.167,-37.541c19.442,-15.213 41.635,-28.954 66.579,-41.222c24.944,-12.268 48.788,-18.403 71.531,-18.403c38.15,0 70.614,13.495 97.392,40.486c26.778,26.991 47.32,61.833 61.627,104.527c14.306,42.694 21.459,87.106 21.459,133.235c0,44.166 -6.236,87.106 -18.708,128.819c-12.472,41.713 -30.08,79.254 -52.823,112.624c-22.743,33.37 -49.155,60.115 -79.234,80.236c-30.08,20.12 -62.36,30.18 -96.842,30.18c-10.271,0 -22.56,-2.208 -36.866,-6.625c-14.306,-4.417 -28.246,-10.06 -41.818,-16.93c-13.573,-6.87 -24.027,-14.722 -31.364,-23.555c-0.734,0 -1.467,5.643 -2.201,16.93c-0.734,11.287 -1.284,23.065 -1.651,35.333c-0.367,12.268 -0.55,19.875 -0.55,22.819l0,275.304c0,12.759 3.852,22.819 11.555,30.18c7.703,7.361 16.507,12.759 26.411,16.194c9.904,3.435 18.525,6.625 25.861,9.569c5.869,2.944 17.057,9.569 17.057,9.569l8.254,22.506Zm41.818,-436.934c11.005,0 24.394,-4.417 40.167,-13.25c15.773,-8.833 31.547,-23.065 47.32,-42.694c15.773,-19.63 28.979,-46.129 39.617,-79.5c10.638,-33.37 15.957,-74.592 15.957,-123.666c0,-56.926 -5.502,-102.564 -16.507,-136.916c-11.005,-34.352 -24.577,-60.361 -40.718,-78.027c-16.14,-17.667 -32.647,-29.444 -49.521,-35.333c-16.874,-5.889 -31.18,-8.833 -42.919,-8.833c-17.608,0 -35.765,4.907 -54.474,14.722c-18.708,9.815 -34.482,20.856 -47.32,33.125c-12.839,12.268 -19.258,21.838 -19.258,28.708c0,21.592 -0.183,43.43 -0.55,65.514c-0.367,22.083 -0.734,43.43 -1.1,64.041c-0.367,20.611 -0.734,39.014 -1.1,55.208c-0.367,16.194 -0.55,28.708 -0.55,37.541c0,39.259 6.786,75.574 20.359,108.944c13.573,33.37 30.446,60.115 50.622,80.236c20.175,20.12 40.167,30.18 59.976,30.18Z" style="fill-rule:nonzero;"/><path fill="#ffffff" d="M4823.85,1070.436l-224.155,0l9.647,-24.695c0,0 11.188,-6.625 17.057,-9.569c11.005,-4.907 21.643,-10.551 31.914,-16.93c10.271,-6.38 15.407,-19.384 15.407,-39.014l0,-741.996c0,-28.463 -3.852,-52.264 -11.555,-71.402c-7.703,-19.139 -39.067,-36.069 -39.067,-36.069l-8.804,-19.139l7.703,-17.667l49.521,-18.403l39.067,-19.875c0,0 24.027,-13.25 35.765,-19.139c2.935,-1.963 6.603,-2.944 6.603,-2.944l3.852,3.681c0,0 1.651,4.662 1.651,6.625c0,8.833 -1.284,27.727 -3.852,56.68c-2.568,28.954 -3.852,76.801 -3.852,143.541l0,736.107c0,19.63 5.136,32.634 15.407,39.014c10.271,6.38 20.909,12.023 31.914,16.93c5.869,2.944 17.057,9.569 17.057,9.569l8.718,24.695Z" style="fill-rule:nonzero;"/><path fill="#ffffff" d="M5078.695,1072.755c-40.351,0 -75.566,-13.25 -105.646,-39.75c-30.08,-26.5 -53.556,-64.041 -70.43,-112.624c-16.874,-48.583 -25.311,-104.773 -25.311,-168.569c0,-56.926 9.721,-108.699 29.163,-155.319c19.442,-46.62 45.303,-84.162 77.584,-112.624c32.281,-28.463 67.496,-42.694 105.646,-42.694c29.346,0 55.391,7.852 78.134,23.555c22.743,15.704 40.534,37.541 53.373,65.514c12.839,27.972 19.258,60.115 19.258,96.43c0,30.426 -11.005,45.639 -33.014,45.639l-232.2,0c-10.271,0 -17.424,3.681 -21.459,11.042c-4.035,7.361 -6.053,21.838 -6.053,43.43c0,47.111 7.703,90.05 23.11,128.819c15.407,38.768 35.949,69.685 61.627,92.75c25.678,23.065 53.923,34.597 84.737,34.597c22.01,0 42.001,-5.643 59.976,-16.93c17.974,-11.287 33.931,-27.727 47.871,-49.319c2.935,-4.907 12.105,-11.778 12.105,-11.778l8.804,14.722c0,0 -6.603,39.259 -19.809,61.833c-11.005,18.648 -24.21,34.842 -39.617,48.583c-15.407,13.741 -32.281,24.292 -50.622,31.653c-18.341,7.361 -37.416,11.042 -57.225,11.042Zm-101.244,-446.081l100.143,0c17.608,0 32.647,-0.491 45.12,-1.472c12.472,-0.981 24.577,-2.944 36.316,-5.889c3.668,-0.981 6.053,-4.171 7.153,-9.569c1.1,-5.398 1.651,-13.005 1.651,-22.819c0,-28.463 -9.354,-52.754 -28.062,-72.875c-18.708,-20.12 -40.901,-30.18 -66.579,-30.18c-16.874,0 -33.748,6.625 -50.622,19.875c-16.874,13.25 -30.813,29.69 -41.818,49.319c-11.005,19.63 -16.507,39.259 -16.507,58.889c0,9.815 4.402,14.722 13.206,14.722Z" style="fill-rule:nonzero;"/></g></svg>