<?xml version="1.0" encoding="UTF-8" standalone="no"?><!DOCTYPE svg PUBLIC "-//W3C//DTD SVG 1.1//EN" "http://www.w3.org/Graphics/SVG/1.1/DTD/svg11.dtd"><svg width="100%" height="100%" viewBox="0 0 150 380" version="1.1" xmlns="http://www.w3.org/2000/svg" xmlns:xlink="http://www.w3.org/1999/xlink" xml:space="preserve" xmlns:serif="http://www.serif.com/" style="fill-rule:evenodd;clip-rule:evenodd;"><rect x="0" y="0" width="150" height="380" style="fill:url(#_Linear1);"/><clipPath id="_clip2"><rect x="0" y="142.351" width="150" height="237.649"/></clipPath><g clip-path="url(#_clip2)"><path d="M149.225,354.668l-1.429,0c0,-85.157 -30.864,-125.439 -30.864,-125.439c26.287,-4.577 80.579,29.435 80.579,29.435c-1.429,-52.573 -58.871,-51.144 -58.871,-51.144c13.997,-17.145 65.723,-12.29 65.723,-12.29c-47.44,-49.715 -87.154,-3.148 -87.154,-3.148c-3.148,-17.145 30.864,-43.431 30.864,-43.431c-57.719,-10.872 -57.719,46.569 -57.719,46.569c0,0 -54.293,-37.148 -83.728,26.287c0,0 43.431,-18.574 66.583,-7.713c0,0 -65.154,7.713 -48.009,80.579c0,0 28.006,-51.144 49.715,-55.722c0,0 -21.722,35.719 17.145,66.583c0,0 -6.284,-57.442 10.861,-69.718c0,0 23.15,29.435 12.29,117.727c0,0 -69.718,3.148 -77.444,33.999l178.595,0c-0.279,0 -14.276,-29.435 -67.14,-32.57l0.004,-0.005Z" style="fill:url(#_Linear3);fill-rule:nonzero;"/></g><path d="M38.981,267.569c5.34,2.027 3.867,7.305 3.867,7.305c3.07,4.849 -1.105,8.04 -1.841,10.127c-0.738,2.084 -0.861,-0.616 1.165,6.687c2.025,7.303 11.843,6.875 13.686,7.303c1.841,0.43 4.479,0 6.198,-1.103c1.719,-1.107 5.214,-0.921 5.214,-0.921c-2.822,0.43 -4.088,4.749 -4.088,4.749c-0.556,13.271 12.928,14.399 12.928,14.399l-1.287,-0.556c-1.291,-0.554 -5.043,-4.485 -6.976,-8.073c-1.989,-3.69 -1.68,-10.125 3.477,-10.092c7.204,0.043 6.259,12.579 6.443,14.052c0.184,1.473 -0.244,11.17 0.244,16.078c0.492,4.908 1.965,22.524 1.473,25.778c-0.49,3.252 -0.919,5.402 -0.058,8.96c0.855,3.562 2.578,21.173 2.089,21.047c-0.492,-0.124 -1.965,0 -8.9,0.676c-6.937,0.673 -8.78,2.82 -11.6,3.435c-2.826,0.614 -6.138,0.985 -7.551,1.593c-1.409,0.616 -5.582,2.392 -7.852,2.948c-2.272,0.556 -5.892,2.089 -6.997,2.64c-1.105,0.552 -2.762,1.469 -3.927,1.96c-1.165,0.49 -4.789,1.103 -6.014,1.163c-1.227,0.062 -2.64,0.735 -3.683,0.921c-1.043,0.182 -5.954,3.438 -5.954,3.438c-0.368,-9.854 4.421,-20.441 5.156,-21.361c0.735,-0.919 1.242,-5.801 2.163,-7.315c0.919,-1.52 6.305,-11.048 6.305,-11.372c0,-0.322 2.233,-12.048 -1.634,-15.959c-3.865,-3.913 -4.877,-7.042 -4.97,-7.734c-0.093,-0.686 -0.248,-6.014 -0.248,-6.014c-3.588,-0.874 -5.392,-4.076 -5.392,-4.076c0.69,4.466 3.223,4.725 3.223,5.156c0,0.432 0.246,2.609 0.184,5.063c-0.06,2.456 1.105,3.297 1.105,3.297c-0.079,-0.031 0.564,0.186 0,0c-2.669,-0.874 -6.421,-0.048 -6.421,-0.048c-7.749,2.103 -5.669,7.706 -5.669,7.889c0,0.184 -0.981,-4.603 6.198,-6.381c7.181,-1.779 9.575,2.514 9.451,3.927c-0.124,1.411 -1.041,6.259 -8.348,7.305c-7.303,1.041 -8.222,-4.051 -8.222,-4.051c0,0 -0.554,-3.254 -0.859,-16.264c-0.306,-13.011 5.462,-16.63 6.689,-17.246c1.227,-0.616 5.768,-4.355 8.408,-6.873c2.638,-2.514 1.413,-5.646 1.413,-5.646c0,0 -1.165,-2.698 -3.5,-8.222c-2.334,-5.524 -6.997,-5.218 -11.046,-8.102c-4.051,-2.884 -2.516,-7.73 -2.516,-7.73c-0.859,-5.586 0.983,-6.813 0.983,-6.813c-0.062,-13.5 12.581,-12.087 12.581,-12.087c9.751,-5.584 14.909,6.144 14.909,6.144Zm8.836,101.501c0,0 0.789,2.421 2.723,0c0.002,0 -1.739,-0.554 -2.723,0Z" style="fill:url(#_Linear4);fill-rule:nonzero;"/><rect x="5" y="5" width="140" height="370" style="fill:none;stroke:#ff007f;stroke-width:1.5px;"/><path d="M136,33l0,64c0,2.208 -1.792,4 -4,4l-114,0c-2.208,0 -4,-1.792 -4,-4l0,-64c0,-2.208 1.792,-4 4,-4l114,0c2.208,0 4,1.792 4,4Z" style="fill:none;stroke:#b967ff;stroke-width:1px;"/><text x="47.666px" y="22px" style="font-family:'Arial-BoldMT', 'Arial', sans-serif;font-weight:700;font-size:8px;fill:#01cdfe;">ØMQ SOCKET</text><text x="26.389px" y="116px" style="font-family:'Arial-BoldMT', 'Arial', sans-serif;font-weight:700;font-size:8px;fill:#ff71ce;">PORT</text><text x="60.85px" y="116px" style="font-family:'Arial-BoldMT', 'Arial', sans-serif;font-weight:700;font-size:8px;fill:#ff71ce;">PROT<tspan x="82.928px " y="116px ">O</tspan></text><text x="106.943px" y="116px" style="font-family:'Arial-BoldMT', 'Arial', sans-serif;font-weight:700;font-size:8px;fill:#ff71ce;">BP</text><text x="50.332px" y="172px" style="font-family:'Arial-BoldMT', 'Arial', sans-serif;font-weight:700;font-size:8px;fill:#ff71ce;">CV OUT (1-9)</text><text x="35.553px" y="186px" style="font-family:'ArialMT', 'Arial', sans-serif;font-size:7px;fill:#01cdfe;">1</text><text x="73.053px" y="186px" style="font-family:'ArialMT', 'Arial', sans-serif;font-size:7px;fill:#01cdfe;">2</text><text x="110.553px" y="186px" style="font-family:'ArialMT', 'Arial', sans-serif;font-size:7px;fill:#01cdfe;">3</text><text x="35.553px" y="221px" style="font-family:'ArialMT', 'Arial', sans-serif;font-size:7px;fill:#01cdfe;">4</text><text x="73.053px" y="221px" style="font-family:'ArialMT', 'Arial', sans-serif;font-size:7px;fill:#01cdfe;">5</text><text x="110.553px" y="221px" style="font-family:'ArialMT', 'Arial', sans-serif;font-size:7px;fill:#01cdfe;">6</text><text x="35.553px" y="256px" style="font-family:'ArialMT', 'Arial', sans-serif;font-size:7px;fill:#01cdfe;">7</text><text x="73.053px" y="256px" style="font-family:'ArialMT', 'Arial', sans-serif;font-size:7px;fill:#01cdfe;">8</text><text x="110.553px" y="256px" style="font-family:'ArialMT', 'Arial', sans-serif;font-size:7px;fill:#01cdfe;">9</text><text x="45.439px" y="302px" style="font-family:'Arial-BoldMT', 'Arial', sans-serif;font-weight:700;font-size:8px;fill:#ff71ce;">POL<tspan x="61.15px 66.342px 68.564px " y="302px 302px 302px ">Y M</tspan>IDI OUT</text><text x="27px" y="344px" style="font-family:'ArialMT', 'Arial', sans-serif;font-size:7px;fill:#01cdfe;">PITCH</text><text x="65.73px" y="344px" style="font-family:'ArialMT', 'Arial', sans-serif;font-size:7px;fill:#01cdfe;">GA<tspan x="75.325px 79.601px " y="344px 344px ">TE</tspan></text><text x="105.885px" y="344px" style="font-family:'ArialMT', 'Arial', sans-serif;font-size:7px;fill:#01cdfe;">VEL</text><text x="54.578px" y="366px" style="font-family:'Arial-BoldMT', 'Arial', sans-serif;font-weight:700;font-size:7px;fill:#fffb96;">discotemple</text><circle cx="15" cy="7.5" r="3" style="fill:#4d0080;"/><circle cx="135" cy="7.5" r="3" style="fill:#4d0080;"/><circle cx="15" cy="372.5" r="3" style="fill:#4d0080;"/><circle cx="135" cy="372.5" r="3" style="fill:#4d0080;"/><defs><linearGradient id="_Linear1" x1="0" y1="0" x2="1" y2="0" gradientUnits="userSpaceOnUse" gradientTransform="matrix(69.663636,65.413364,-65.413364,69.663636,0,204.847112)"><stop offset="0" style="stop-color:#2b0f54;stop-opacity:1"/><stop offset="1" style="stop-color:#6a40a8;stop-opacity:1"/></linearGradient><linearGradient id="_Linear3" x1="0" y1="0" x2="1" y2="0" gradientUnits="userSpaceOnUse" gradientTransform="matrix(201.537118,211.022801,-211.022801,201.537118,9.383373,181.965169)"><stop offset="0" style="stop-color:#6a005d;stop-opacity:1"/><stop offset="1" style="stop-color:#d01eba;stop-opacity:1"/></linearGradient><linearGradient id="_Linear4" x1="0" y1="0" x2="1" y2="0" gradientUnits="userSpaceOnUse" gradientTransform="matrix(-32.767555,-42.056563,42.056563,-32.767555,72.408604,373.056558)"><stop offset="0" style="stop-color:#62119e;stop-opacity:1"/><stop offset="1" style="stop-color:#330059;stop-opacity:1"/></linearGradient></defs></svg>