<?xml version="1.0" encoding="UTF-8" standalone="no"?><!DOCTYPE svg PUBLIC "-//W3C//DTD SVG 1.1//EN" "http://www.w3.org/Graphics/SVG/1.1/DTD/svg11.dtd"><svg width="100%" height="100%" viewBox="0 0 625 1584" version="1.1" xmlns="http://www.w3.org/2000/svg" xmlns:xlink="http://www.w3.org/1999/xlink" xml:space="preserve" xmlns:serif="http://www.serif.com/" style="fill-rule:evenodd;clip-rule:evenodd;"><rect x="0" y="0" width="625" height="1583.333" style="fill:url(#_Linear1);"/><clipPath id="_clip2"><rect x="-148.91" y="559.39" width="773.91" height="1023.943"/></clipPath><g clip-path="url(#_clip2)"><path d="M638.121,1444.041l-5.953,0c0,-354.82 -128.6,-522.663 -128.6,-522.663c109.529,-19.069 335.746,122.647 335.746,122.647c-5.953,-219.052 -245.294,-213.099 -245.294,-213.099c58.322,-71.438 273.845,-51.207 273.845,-51.207c-197.669,-207.146 -363.143,-13.116 -363.143,-13.116c-13.116,-71.438 128.6,-180.964 128.6,-180.964c-240.496,-45.3 -240.496,194.037 -240.496,194.037c0,0 -226.22,-154.782 -348.867,109.529c-0,0 180.964,-77.391 277.429,-32.138c0,0 -271.476,32.138 -200.038,335.746c0,0 116.691,-213.099 207.146,-232.173c0,0 -90.507,148.829 71.438,277.429c0,0 -26.184,-239.341 45.254,-290.49c0,0 96.46,122.647 51.207,490.528c0,0 -290.49,13.116 -322.685,141.661l744.145,0c-1.163,0 -59.485,-122.647 -279.751,-135.708l0.017,-0.019Z" style="fill:url(#_Linear3);fill-rule:nonzero;"/></g><path d="M162.421,1114.871c22.251,8.444 16.114,30.437 16.114,30.437c12.791,20.202 -4.605,33.501 -7.669,42.195c-3.073,8.685 -3.589,-2.565 4.855,27.863c8.436,30.428 49.348,28.646 57.026,30.428c7.669,1.79 18.661,0 25.823,-4.596c7.162,-4.614 21.726,-3.839 21.726,-3.839c-11.758,1.79 -17.035,19.789 -17.035,19.789c-2.315,55.296 53.867,59.995 53.867,59.995l-5.363,-2.315c-5.38,-2.307 -21.011,-18.687 -29.068,-33.639c-8.289,-15.373 -6.998,-42.186 14.487,-42.048c30.015,0.181 26.081,52.412 26.847,58.549c0.766,6.137 -1.016,46.542 1.016,66.993c2.049,20.452 8.186,93.849 6.137,107.406c-2.04,13.548 -3.83,22.509 -0.241,37.331c3.564,14.84 10.742,88.22 8.702,87.695c-2.049,-0.516 -8.186,0 -37.082,2.815c-28.905,2.806 -36.583,11.749 -48.332,14.315c-11.775,2.556 -25.573,4.106 -31.461,6.637c-5.87,2.565 -23.258,9.968 -32.718,12.283c-9.468,2.315 -24.549,8.702 -29.154,11.001c-4.605,2.298 -11.508,6.12 -16.363,8.169c-4.855,2.04 -19.953,4.596 -25.057,4.846c-5.113,0.258 -11.001,3.064 -15.347,3.839c-4.347,0.757 -24.807,14.323 -24.807,14.323c-1.532,-41.059 18.42,-85.173 21.485,-89.003c3.064,-3.83 5.173,-24.17 9.012,-30.48c3.83,-6.335 26.271,-46.034 26.271,-47.385c0,-1.343 9.305,-50.2 -6.809,-66.494c-16.105,-16.303 -20.323,-29.344 -20.71,-32.227c-0.387,-2.858 -1.033,-25.057 -1.033,-25.057c-14.952,-3.641 -22.466,-16.983 -22.466,-16.983c2.875,18.61 13.428,19.686 13.428,21.485c0,1.799 1.024,10.871 0.766,21.097c-0.25,10.235 4.605,13.738 4.605,13.738c-0.327,-0.129 2.35,0.775 0,0c-11.121,-3.641 -26.753,-0.198 -26.753,-0.198c-32.287,8.763 -23.619,32.107 -23.619,32.873c0,0.766 -4.089,-19.178 25.823,-26.589c29.92,-7.411 39.897,10.476 39.38,16.363c-0.516,5.879 -4.338,26.081 -34.784,30.437c-30.428,4.338 -34.258,-16.88 -34.258,-16.88c0,0 -2.307,-13.557 -3.581,-67.768c-1.274,-54.211 22.759,-69.292 27.872,-71.857c5.113,-2.565 24.033,-18.145 35.033,-28.638c10.992,-10.476 5.888,-23.525 5.888,-23.525c0,0 -4.855,-11.242 -14.581,-34.258c-9.727,-23.017 -29.154,-21.743 -46.025,-33.759c-16.88,-12.016 -10.484,-32.21 -10.484,-32.21c-3.581,-23.275 4.097,-28.388 4.097,-28.388c-0.258,-56.251 52.421,-50.363 52.421,-50.363c40.628,-23.267 62.121,25.599 62.121,25.599Zm36.815,422.92c0,0 3.288,10.088 11.345,0c0.009,0 -7.248,-2.307 -11.345,0Z" style="fill:url(#_Linear4);fill-rule:nonzero;"/><rect x="20.833" y="20.833" width="583.333" height="1541.667" style="fill:none;stroke:#ff007f;stroke-width:6.25px;"/><path d="M566.667,137.5l0,266.667c0,9.199 -7.468,16.667 -16.667,16.667l-475,0c-9.199,0 -16.667,-7.468 -16.667,-16.667l0,-266.667c0,-9.199 7.468,-16.667 16.667,-16.667l475,0c9.199,0 16.667,7.468 16.667,16.667Z" style="fill:none;stroke:#b967ff;stroke-width:4.17px;"/><text x="198.608px" y="91.667px" style="font-family:'Arial-BoldMT', 'Arial', sans-serif;font-weight:700;font-size:33.333px;fill:#01cdfe;">ØMQ SOCKET</text><text x="109.953px" y="483.333px" style="font-family:'Arial-BoldMT', 'Arial', sans-serif;font-weight:700;font-size:33.333px;fill:#ff71ce;">PORT</text><text x="253.54px" y="483.333px" style="font-family:'Arial-BoldMT', 'Arial', sans-serif;font-weight:700;font-size:33.333px;fill:#ff71ce;">PROT<tspan x="345.532px " y="483.333px ">O</tspan></text><text x="445.597px" y="483.333px" style="font-family:'Arial-BoldMT', 'Arial', sans-serif;font-weight:700;font-size:33.333px;fill:#ff71ce;">BP</text><text x="209.717px" y="716.667px" style="font-family:'Arial-BoldMT', 'Arial', sans-serif;font-weight:700;font-size:33.333px;fill:#ff71ce;">CV OUT (1-9)</text><text x="148.139px" y="775px" style="font-family:'ArialMT', 'Arial', sans-serif;font-size:29.167px;fill:#01cdfe;">1</text><text x="304.389px" y="775px" style="font-family:'ArialMT', 'Arial', sans-serif;font-size:29.167px;fill:#01cdfe;">2</text><text x="460.639px" y="775px" style="font-family:'ArialMT', 'Arial', sans-serif;font-size:29.167px;fill:#01cdfe;">3</text><text x="148.139px" y="920.833px" style="font-family:'ArialMT', 'Arial', sans-serif;font-size:29.167px;fill:#01cdfe;">4</text><text x="304.389px" y="920.833px" style="font-family:'ArialMT', 'Arial', sans-serif;font-size:29.167px;fill:#01cdfe;">5</text><text x="460.639px" y="920.833px" style="font-family:'ArialMT', 'Arial', sans-serif;font-size:29.167px;fill:#01cdfe;">6</text><text x="148.139px" y="1066.667px" style="font-family:'ArialMT', 'Arial', sans-serif;font-size:29.167px;fill:#01cdfe;">7</text><text x="304.389px" y="1066.667px" style="font-family:'ArialMT', 'Arial', sans-serif;font-size:29.167px;fill:#01cdfe;">8</text><text x="460.639px" y="1066.667px" style="font-family:'ArialMT', 'Arial', sans-serif;font-size:29.167px;fill:#01cdfe;">9</text><text x="189.331px" y="1258.333px" style="font-family:'Arial-BoldMT', 'Arial', sans-serif;font-weight:700;font-size:33.333px;fill:#ff71ce;">POL<tspan x="254.793px 276.424px 285.685px " y="1258.333px 1258.333px 1258.333px ">Y M</tspan>IDI OUT</text><text x="112.5px" y="1433.333px" style="font-family:'ArialMT', 'Arial', sans-serif;font-size:29.167px;fill:#01cdfe;">PITCH</text><text x="273.877px" y="1433.333px" style="font-family:'ArialMT', 'Arial', sans-serif;font-size:29.167px;fill:#01cdfe;">GA<tspan x="313.853px 331.669px " y="1433.333px 1433.333px ">TE</tspan></text><text x="441.186px" y="1433.333px" style="font-family:'ArialMT', 'Arial', sans-serif;font-size:29.167px;fill:#01cdfe;">VEL</text><text x="227.407px" y="1525px" style="font-family:'Arial-BoldMT', 'Arial', sans-serif;font-weight:700;font-size:29.167px;fill:#fffb96;">discotemple</text><circle cx="62.5" cy="31.25" r="12.5" style="fill:#4d0080;"/><circle cx="562.5" cy="31.25" r="12.5" style="fill:#4d0080;"/><circle cx="62.5" cy="1552.083" r="12.5" style="fill:#4d0080;"/><circle cx="562.5" cy="1552.083" r="12.5" style="fill:#4d0080;"/><defs><linearGradient id="_Linear1" x1="0" y1="0" x2="1" y2="0" gradientUnits="userSpaceOnUse" gradientTransform="matrix(290.265151,272.555681,-272.555681,290.265151,0,853.529634)"><stop offset="0" style="stop-color:#2b0f54;stop-opacity:1"/><stop offset="1" style="stop-color:#6a40a8;stop-opacity:1"/></linearGradient><linearGradient id="_Linear3" x1="0" y1="0" x2="1" y2="0" gradientUnits="userSpaceOnUse" gradientTransform="matrix(839.737993,879.261669,-879.261669,839.737993,55.447576,724.447971)"><stop offset="0" style="stop-color:#6a005d;stop-opacity:1"/><stop offset="1" style="stop-color:#d01eba;stop-opacity:1"/></linearGradient><linearGradient id="_Linear4" x1="0" y1="0" x2="1" y2="0" gradientUnits="userSpaceOnUse" gradientTransform="matrix(-136.531481,-175.235681,175.235681,-136.531481,301.702518,1554.402324)"><stop offset="0" style="stop-color:#62119e;stop-opacity:1"/><stop offset="1" style="stop-color:#330059;stop-opacity:1"/></linearGradient></defs></svg>