<?xml version='1.0' encoding='utf-8'?>
<svg xmlns="http://www.w3.org/2000/svg" width="100%" height="100%" viewBox="0 0 150 380" version="1.1" xml:space="preserve" style="fill-rule:evenodd;clip-rule:evenodd;"><g transform="scale(0.24)"><rect x="0" y="0" width="625" height="1583.333" style="fill:#122b14;" /><g><g><path d="M402.586,419.549c23.973,10.988 46.739,24.824 67.66,40.363c7.116,5.29 -0.023,-0.003 29.606,24.666c0.266,1.255 1.465,2.178 3.09,2.762c5.044,4.502 6.082,5.277 9.15,8.236c14.823,14.271 28.246,30.001 40.281,46.677c28.777,39.886 49.428,85.974 56.586,134.81c5.008,34.107 3.293,68.926 -4.471,102.491c-6.269,27.127 -16.338,53.282 -29.056,78.013c-13.933,27.11 -31.163,52.616 -51.986,74.937c-27.78,29.761 -61.906,53.423 -100.012,67.906c-15.114,5.741 -30.752,10.048 -46.655,12.901c-12.382,2.229 -24.93,3.546 -37.509,4.025c-87.81,3.388 -173.28,-34.432 -238.534,-91.575c-24.463,-21.413 -46.745,-45.601 -64.573,-72.841c-24.418,-37.302 -39.784,-79.798 -43.415,-124.287c-1.109,-13.488 -1.147,-27.041 -0.161,-40.546c7.039,-96.923 65.731,-185.196 143.527,-240.957c19.996,-14.332 41.417,-27.039 64.215,-36.362c23.811,-9.736 49.132,-15.711 74.816,-17.266c44.081,-2.658 87.477,7.74 127.444,26.046Zm13.336,-8.133c-22.771,-10.655 -46.589,-19.033 -71.131,-24.516c-38.564,-8.621 -78.918,-9.433 -117.576,-0.972c-17.783,3.908 -35.163,9.704 -51.769,17.181c-24.257,10.907 -47.047,25.225 -68.149,41.357c-77.429,59.217 -134.346,150.544 -137.955,249.551c-0.521,14.407 0.115,28.837 1.911,43.148c2.47,19.673 7.147,39.047 13.91,57.672c12.29,33.885 31.353,65.057 54.68,92.455c13.559,15.947 28.493,30.791 44.29,44.51c75.955,65.935 177.422,106.811 278.898,97.583c14.392,-1.31 28.703,-3.658 42.736,-7.067c17.029,-4.139 33.707,-9.839 49.662,-17.091c20.646,-9.406 40.039,-21.417 57.754,-35.581c24.978,-19.962 46.36,-44.16 63.976,-70.809c9.531,-14.396 18.019,-29.522 25.438,-45.108c11.47,-24.079 20.418,-49.392 25.869,-75.526c5.602,-26.869 7.386,-54.52 5.057,-81.869c-2.633,-30.87 -10.528,-61.138 -22.669,-89.6c-13.913,-32.595 -33.208,-62.862 -56.149,-89.828c-7.56,-8.886 -15.518,-17.442 -23.935,-25.537c-2.874,-2.763 -5.779,-5.477 -8.766,-8.102c-0.873,-0.769 -1.765,-1.514 -2.661,-2.269c-0.246,-0.205 -0.505,-0.401 -0.751,-0.606c-0.036,-0.041 -0.075,-0.06 -0.128,-0.101c-0.016,-0.016 -0.024,-0.051 -0.047,-0.07c-0.016,-0.016 -0.027,-0.045 -0.05,-0.064c-0.234,-0.231 -0.477,-0.443 -0.717,-0.678c-0.03,-0.022 -0.056,-0.051 -0.089,-0.082c-0.321,-0.569 -0.787,-1.016 -1.469,-1.365c-0.315,-0.294 -0.625,-0.618 -0.944,-0.906c-2.293,-2.102 -4.624,-4.142 -6.977,-6.168c-6.951,-5.972 -14.09,-11.681 -21.445,-17.141c-22.113,-16.428 -45.856,-30.73 -70.807,-42.401Z" style="fill:#071008;fill-rule:nonzero;" /><path d="M366.43,398.301c-9.194,-3.634 -18.734,-6.425 -28.29,-8.912c-9.68,-2.514 -19.464,-4.693 -29.302,-6.523c-50.673,-9.398 -103.904,-9.409 -152.965,7.816c-10.684,3.75 -21.132,8.262 -31.142,13.566c-7.493,3.969 -14.689,8.472 -21.841,13.035c-6.881,4.397 -13.719,8.854 -20.437,13.497c-17.493,12.086 -34.77,25.146 -49.163,40.879c-7.112,7.782 -13.387,16.308 -18.278,25.654c-4.672,8.939 -8.344,18.346 -13.045,27.262c-0.755,1.432 -1.451,2.924 -2.265,4.311c-3.3,5.625 -7.246,10.846 -10.689,16.387c-5.005,8.044 -9.357,16.512 -13.148,25.198c-6.887,15.761 -12.115,32.338 -15.512,49.204c-2.559,12.658 -4.107,25.631 -3.816,38.553c0.13,5.446 0.599,10.901 1.58,16.257c0.726,3.946 1.84,7.797 2.614,11.742c1.09,5.68 1.74,11.445 1.685,17.227c-0.087,11.67 -3.483,22.729 -5.973,34.02c-2.008,9.122 -3.247,18.378 -3.475,27.708c-0.556,24.173 12.778,47.165 29.1,64.094c3.128,3.252 6.441,6.336 9.914,9.233c6.268,5.222 13.001,9.722 20.361,13.209c-0.123,0.877 5.578,2.477 12.726,3.575c7.131,1.082 13.021,1.228 13.157,0.357c-8.574,-3.994 -16.253,-9.713 -23.211,-16.072c-18.791,-17.171 -35.01,-42.147 -34.829,-68.451c0.053,-9.334 1.118,-18.593 2.977,-27.738c2.074,-10.25 5.01,-20.312 5.409,-30.825c0.275,-6.964 -0.504,-13.951 -1.935,-20.762c-1,-4.797 -2.463,-9.51 -3.273,-14.352c-1.911,-11.439 -1.729,-23.223 -0.586,-34.741c1.343,-13.582 4.136,-27.049 7.952,-40.163c3.819,-13.153 8.708,-26.068 14.826,-38.34c2.734,-5.479 5.732,-10.809 9.043,-15.972c2.978,-4.651 6.26,-9.165 9.049,-13.922c0.827,-1.398 1.549,-2.861 2.304,-4.293c3.248,-6.154 6.078,-12.539 9.065,-18.834c2.801,-5.888 5.875,-11.645 9.426,-17.126c11.421,-17.654 27.516,-31.807 44.103,-44.492c11.367,-8.72 23.215,-16.804 35.246,-24.567c5.971,-3.847 11.951,-7.698 18.106,-11.225c6.646,-3.821 13.512,-7.313 20.517,-10.427c29.32,-13.035 61.241,-19.582 93.253,-20.55c20.899,-0.63 41.984,0.965 62.499,5.064c6.885,1.38 13.667,3.128 20.417,5.076c2.321,0.667 4.598,1.361 6.892,2.12c0.689,0.233 1.401,0.468 2.086,0.707c0.221,0.073 0.393,0.132 0.614,0.205c0.033,0.016 0.361,0.132 0.348,0.126c-0.073,0.605 3.876,1.601 8.825,2.21c4.943,0.606 9.008,0.602 9.081,-0.004Z" style="fill:#071008;fill-rule:nonzero;" /><path d="M-41.996,803.775c-2.483,-1.184 -5.573,-3.091 -7.641,-6.437c-2.948,-4.702 -3.77,-8.782 -4.374,-11.758c-0.264,-1.326 -0.474,-2.378 -0.852,-3.446c-0.245,-0.677 -0.486,-1.328 -0.718,-1.95c-1.594,-4.272 -3.578,-9.586 -2.408,-17.155c0.721,-4.68 2.271,-8.668 3.63,-12.187c1.045,-2.693 1.945,-5.016 2.309,-7.154c0.083,-0.56 -0.181,-2.27 -0.347,-3.397c-0.544,-3.539 -1.279,-8.386 0.419,-13.807c0.869,-2.777 2.01,-5.321 3.114,-7.786c1.206,-2.696 2.45,-5.487 2.684,-7.319c0.064,-0.537 -1.081,-2.58 -1.836,-3.932c-1.76,-3.152 -4.179,-7.473 -4.592,-13.046c-0.464,-6.189 2.015,-11.166 3.827,-14.797c0.505,-1.007 1.255,-2.529 1.393,-3.087c0.488,-2.095 0.773,-5.343 0.647,-7.091c-0.176,-0.42 -0.581,-1.197 -0.892,-1.785c-1.028,-1.954 -2.434,-4.641 -3.099,-7.942c-0.907,-4.504 -1.429,-10.201 -1.551,-16.939c-0.164,-8.862 3.531,-15.938 6.491,-21.622c1.241,-2.368 2.408,-4.611 3.148,-6.666c0.27,-0.751 0.018,-2.535 -0.243,-4.42c-0.479,-3.34 -1.06,-7.505 0.043,-12.315c2.302,-9.957 8.705,-21.501 16.328,-29.416c2.269,-2.358 4.684,-4.117 6.809,-5.671c1.835,-1.332 3.566,-2.595 4.366,-3.668c0.788,-1.048 1.63,-2.663 2.516,-4.368c1.69,-3.241 3.611,-6.916 6.78,-10.204c4.379,-4.551 11.617,-4.682 16.161,-0.307c4.551,4.379 4.691,11.613 0.312,16.165c-0.896,0.923 -1.957,2.962 -2.983,4.928c-1.21,2.319 -2.589,4.957 -4.483,7.486c-2.864,3.824 -6.373,6.383 -9.193,8.438c-1.51,1.103 -2.934,2.143 -3.821,3.064c-4.8,4.982 -9.124,12.67 -10.504,18.683c-0.158,0.684 0.087,2.45 0.307,4.002c0.55,3.91 1.302,9.277 -0.881,15.346c-1.265,3.508 -2.921,6.694 -4.387,9.498c-2.124,4.066 -3.957,7.591 -3.904,10.633c0.094,5.236 0.469,9.631 1.085,12.733c0.133,0.391 0.605,1.281 0.953,1.943c1.209,2.312 2.872,5.482 3.329,9.523c0.562,4.876 -0.127,11.115 -1.063,15.124c-0.726,3.165 -2.096,5.92 -3.198,8.13c-0.492,0.981 -1.192,2.399 -1.437,3.146c0.237,0.745 1.102,2.285 1.693,3.343c2.211,3.951 5.558,9.931 4.566,17.913c-0.652,5.224 -2.699,9.8 -4.501,13.828c-0.874,1.951 -1.693,3.784 -2.163,5.288c-0.1,0.512 0.182,2.335 0.359,3.539c0.445,2.908 0.993,6.521 0.294,10.652c-0.745,4.412 -2.231,8.231 -3.534,11.601c-1.082,2.788 -2.009,5.185 -2.352,7.413c-0.239,1.558 -0.052,2.223 1.232,5.667c0.272,0.738 0.561,1.507 0.847,2.316c0.92,2.599 1.361,4.793 1.717,6.563c0.235,1.168 0.394,1.94 0.6,2.566c0.609,0.25 1.139,0.479 1.543,0.672c5.702,2.72 8.118,9.544 5.401,15.24c-2.72,5.702 -9.544,8.118 -15.246,5.398c-0.052,-0.025 -0.215,-0.086 -0.394,-0.164c-0.651,-0.262 -1.445,-0.593 -2.305,-1.004Z" style="fill:#071008;fill-rule:nonzero;" /><path d="M8.685,840.775c-1.287,-0.59 -2.943,-0.22 -4.223,0.385c-0.432,0.218 0.44,0.906 0.603,1.368c0.822,2.352 2.334,4.833 2.564,7.319c0.432,4.646 0.428,9.667 0.877,14.561c0.691,7.489 -4.92,14.708 -6.013,21.794c-1.734,11.332 -2.823,23.643 -9.137,33.91c-4.492,7.304 -9.51,15.022 -12.983,22.924c-1.735,3.94 -0.977,8.101 -3.128,12.091c-6.014,11.114 -12.697,21.837 -18.686,32.899c-3.122,5.79 -8.468,22.447 0.381,24.524c8.099,1.888 14.963,-10.925 17.854,-16.297c4.665,-8.622 4.508,-18.808 9.756,-27.344c3.987,-6.497 11.3,-10.256 14.439,-17.39c3.176,-7.212 3.081,-15.849 6.866,-22.827c3,-5.568 7.45,-13.085 12.563,-17.229c4.168,-3.371 9.455,-1.761 13.781,-4.105c1.333,-0.716 1.998,-2.343 3.5,-3.162c1.343,-0.719 3.921,-2.249 5.443,-2.387c3.433,-0.322 6.63,3.323 8.844,-1.301c1.396,-2.894 -4.603,-13.491 -5.817,-16.918c-1.214,-3.491 -2.415,-7.967 -4.778,-10.895c-1.778,-2.192 -4.877,-3.326 -6.661,-5.522c-5.157,-6.396 -10.276,-12.013 -16.708,-17.345c-5.113,-4.239 -2.347,-5.863 -9.336,-9.053Z" style="fill:#071008;fill-rule:nonzero;" /><path d="M12.723,851.612c0.116,1.719 0.197,3.462 0.273,5.162c0.105,2.378 0.212,4.837 0.43,7.181c0.518,5.623 -1.605,10.777 -3.488,15.327c-1.134,2.747 -2.207,5.347 -2.564,7.672c-0.216,1.409 -0.419,2.84 -0.631,4.275c-1.459,10.135 -3.122,21.621 -9.173,31.47c-0.624,1.006 -1.248,2.012 -1.875,3.025c-3.904,6.289 -7.943,12.794 -10.806,19.299c-0.527,1.205 -0.736,2.633 -0.97,4.281c-0.352,2.464 -0.755,5.255 -2.332,8.175c-3.051,5.64 -6.305,11.239 -9.454,16.649c-3.086,5.312 -6.281,10.803 -9.229,16.244c-2.416,4.495 -4.942,13.545 -3.457,16.838c0.172,0.394 0.28,0.453 0.617,0.534c1.995,0.464 5.759,-1.541 12.333,-13.747c1.964,-3.631 2.991,-7.645 4.075,-11.895c1.327,-5.23 2.706,-10.636 5.869,-15.775c2.1,-3.43 4.807,-6.035 7.418,-8.557c2.757,-2.661 5.362,-5.17 6.703,-8.233c1.255,-2.849 1.951,-6.101 2.687,-9.557c0.965,-4.539 1.97,-9.227 4.362,-13.638c3.091,-5.741 7.89,-13.923 13.791,-18.715c3.424,-2.767 7.151,-3.236 10.145,-3.608c1.692,-0.209 3.161,-0.388 4.249,-0.925c0.111,-0.115 0.288,-0.319 0.418,-0.473c0.667,-0.762 1.663,-1.91 3.211,-2.756l0.607,-0.334c2.417,-1.327 4.595,-2.439 6.746,-2.638c1.541,-0.145 2.918,0.104 4.064,0.403c-0.822,-2.368 -2.416,-5.768 -3.22,-7.487c-0.894,-1.898 -1.6,-3.403 -2.01,-4.574c-0.222,-0.642 -0.44,-1.29 -0.663,-1.964c-0.893,-2.69 -1.908,-5.742 -3.3,-7.47c-0.43,-0.525 -1.323,-1.135 -2.268,-1.786c-1.426,-0.968 -3.045,-2.068 -4.387,-3.733c-5.748,-7.118 -10.539,-12.099 -16.03,-16.654c-0.859,-0.714 -1.563,-1.385 -2.143,-2.014Zm-57.157,164.96c-2.268,-1.082 -4.045,-2.906 -5.123,-5.308c-3.722,-8.263 1.612,-21.573 3.772,-25.582c3.026,-5.588 6.252,-11.144 9.382,-16.515c3.111,-5.347 6.325,-10.878 9.304,-16.384c0.737,-1.377 0.975,-2.999 1.24,-4.88c0.301,-2.072 0.635,-4.417 1.71,-6.855c3.145,-7.147 7.366,-13.949 11.449,-20.529c0.624,-1.006 1.245,-2.006 1.853,-2.996c4.985,-8.101 6.427,-18.068 7.818,-27.708c0.212,-1.467 0.424,-2.918 0.639,-4.359c0.542,-3.501 1.896,-6.775 3.2,-9.945c1.579,-3.83 3.072,-7.446 2.777,-10.65c-0.235,-2.576 -0.351,-5.151 -0.465,-7.645c-0.106,-2.427 -0.204,-4.721 -0.409,-6.907c-0.084,-0.88 -0.648,-2.181 -1.201,-3.436c-0.3,-0.679 -0.607,-1.377 -0.888,-2.112c-0.603,-0.832 -1.576,-2.448 -1.092,-4.569c0.347,-1.498 1.338,-2.754 2.726,-3.451c2.987,-1.415 6.042,-1.565 8.475,-0.461c5.11,2.318 6.582,4.38 7.993,6.821c0.571,1 0.988,1.719 2.444,2.926c6.025,4.994 11.228,10.388 17.405,18.046c0.43,0.525 1.323,1.135 2.271,1.779c1.423,0.975 3.035,2.072 4.38,3.73c2.522,3.131 3.836,7.085 4.995,10.574c0.205,0.626 0.407,1.226 0.612,1.804c0.239,0.69 0.948,2.204 1.631,3.658c3.739,7.975 5.869,13.103 3.971,17.029c-3.299,6.882 -9.375,5.047 -11.369,4.448c-0.445,-0.14 -1.098,-0.332 -1.402,-0.365c-0.713,0.22 -2.283,1.079 -2.976,1.46l-0.563,0.308c-0.124,0.109 -0.371,0.391 -0.554,0.608c-0.67,0.768 -1.591,1.825 -3.033,2.601c-2.727,1.475 -5.456,1.813 -7.873,2.116c-2.423,0.3 -3.975,0.535 -5.143,1.474c-5.043,4.098 -9.773,12.857 -11.324,15.74c-1.718,3.164 -2.528,6.977 -3.394,11.004c-0.805,3.784 -1.643,7.704 -3.298,11.474c-2.132,4.838 -5.72,8.302 -8.89,11.358c-2.272,2.196 -4.416,4.261 -5.865,6.626c-2.376,3.858 -3.511,8.316 -4.715,13.037c-1.18,4.653 -2.405,9.452 -4.903,14.068c-3.497,6.491 -11.583,21.497 -23.314,18.756c-0.798,-0.189 -1.552,-0.452 -2.256,-0.788Z" style="fill:#071008;fill-rule:nonzero;" /><path d="M212.609,402.51c8.242,-2.94 20.019,-1.921 27.03,3.823c3.565,2.94 5.394,8.949 11.368,8.383c7.447,-0.687 16.664,-4.498 22.197,-9.69c5.38,-5.073 11.504,-12.495 19.392,-13.268c10.941,-1.068 20.309,7.264 30.011,10.117c6.173,1.817 12.93,-0.04 19.123,2.323c6.017,2.31 9.021,10.855 15.235,12.099c4.236,0.845 9.601,-1.596 13.725,-2.108c7.388,-0.915 16.784,0.031 24.093,1.31c5.647,0.99 13.279,1.879 18.253,4.916c8.44,5.146 14.031,14.221 19.985,21.829c2.024,2.582 3.468,5.726 6.057,7.745c5.135,3.993 14.533,3.509 18.58,-2.056c5.205,-7.172 -5.868,-14.094 -10.344,-16.885c-5.211,-3.246 -9.908,-7.318 -15.486,-9.963c-8.788,-4.168 -18.688,-7.443 -27.779,-10.924c-15.371,-5.893 -31.812,-13.384 -48.158,-16.094c-19.235,-3.192 -38.747,-2.805 -58.195,-4.379c-23.442,-1.903 -47.543,-0.985 -68.64,10.509l-16.447,2.314Z" style="fill:#071008;fill-rule:nonzero;" /><path d="M414.295,417.407c0.137,0.081 0.281,0.166 0.424,0.251c7.261,4.431 12.362,11.281 17.29,17.903c1.189,1.599 2.365,3.176 3.552,4.694c0.757,0.961 1.415,1.963 2.06,2.926c1.1,1.669 2.133,3.242 3.441,4.257c1.983,1.546 5.057,2.244 8.027,1.821c2.599,-0.368 4.713,-1.512 5.953,-3.224c0.838,-1.152 0.806,-1.991 0.695,-2.596c-0.746,-3.803 -7.564,-8.056 -10.136,-9.659c-1.98,-1.232 -3.888,-2.582 -5.736,-3.888c-3.135,-2.215 -6.096,-4.308 -9.355,-5.862c-0.02,-0.009 -0.046,-0.022 -0.065,-0.031c-5.095,-2.415 -10.644,-4.55 -16.15,-6.592Zm-101.993,-23.592c0.479,0.237 0.949,0.476 1.421,0.71c3.4,1.71 6.614,3.323 9.8,4.259c2.448,0.72 5.149,0.76 8.014,0.807c3.689,0.064 7.501,0.122 11.342,1.595c3.562,1.371 6.128,4.275 8.384,6.839c2.111,2.399 4.107,4.655 6.34,5.104c2.029,0.408 4.867,-0.326 7.609,-1.042c1.69,-0.441 3.432,-0.89 5.076,-1.098c8.893,-1.101 19.513,0.365 25.056,1.337c0.791,0.137 1.629,0.273 2.487,0.419c2.466,0.4 5.199,0.856 7.901,1.497c-0.952,-0.35 -1.898,-0.714 -2.832,-1.071c-3.07,-1.177 -6.184,-2.414 -9.323,-3.664c-12.516,-4.987 -25.455,-10.143 -38.212,-12.261c-12.238,-2.03 -24.902,-2.6 -37.155,-3.157c-1.952,-0.083 -3.924,-0.176 -5.909,-0.275Zm-75.612,6.879c1.779,0.849 3.465,1.893 4.996,3.143c1.377,1.137 2.436,2.506 3.471,3.824c2.253,2.891 3.388,4.048 5.548,3.847c6.996,-0.646 15.527,-4.36 20.291,-8.831c0.841,-0.791 1.707,-1.65 2.591,-2.531c2.696,-2.666 5.749,-5.697 9.256,-8c-14.892,-0.257 -31.469,1.307 -46.868,8.216c0.238,0.105 0.479,0.22 0.713,0.332Zm-25.467,4.722c-0.743,-0.354 -1.352,-0.989 -1.649,-1.826c-0.599,-1.678 0.274,-3.525 1.952,-4.125c4.325,-1.537 9.797,-2.174 15.24,-1.545c0.216,-0.217 0.464,-0.403 0.745,-0.556c23.518,-12.811 50.001,-12.553 70.442,-10.898c6.828,0.561 13.806,0.874 20.548,1.179c12.441,0.567 25.308,1.145 37.922,3.243c13.44,2.228 26.711,7.511 39.543,12.624c3.117,1.247 6.198,2.469 9.239,3.639c2.537,0.97 5.138,1.923 7.759,2.885c6.776,2.496 13.787,5.073 20.248,8.131c0.026,0.012 0.052,0.025 0.078,0.037c3.754,1.791 7.085,4.148 10.305,6.42c1.849,1.306 3.593,2.546 5.426,3.684c3.816,2.38 11.769,7.342 13.05,13.896c0.511,2.652 -0.105,5.285 -1.803,7.619c-2.283,3.143 -5.933,5.209 -10.275,5.826c-4.709,0.665 -9.536,-0.501 -12.895,-3.119c-2.14,-1.669 -3.585,-3.854 -4.861,-5.791c-0.595,-0.9 -1.159,-1.745 -1.748,-2.506c-1.224,-1.56 -2.433,-3.184 -3.651,-4.822c-4.564,-6.129 -9.283,-12.468 -15.473,-16.245c-3.73,-2.275 -9.746,-3.265 -14.576,-4.058c-0.88,-0.148 -1.742,-0.287 -2.562,-0.43c-8.819,-1.551 -17.256,-2.024 -23.133,-1.292c-1.227,0.158 -2.696,0.538 -4.249,0.941c-3.291,0.862 -7.022,1.826 -10.507,1.131c-4.373,-0.878 -7.315,-4.218 -9.915,-7.17c-1.94,-2.205 -3.764,-4.283 -5.849,-5.078c-2.781,-1.063 -5.869,-1.112 -9.138,-1.168c-3.166,-0.054 -6.445,-0.107 -9.734,-1.076c-3.741,-1.096 -7.369,-2.915 -10.873,-4.675c-6.063,-3.052 -11.804,-5.927 -17.915,-5.323c-5.477,0.531 -10.417,5.438 -14.781,9.756c-0.926,0.918 -1.833,1.813 -2.712,2.65c-5.891,5.525 -15.579,9.767 -24.112,10.552c-5.887,0.552 -8.983,-3.405 -11.236,-6.296c-0.853,-1.095 -1.657,-2.127 -2.484,-2.809c-6.277,-5.154 -17.076,-5.706 -23.891,-3.277c-0.847,0.3 -1.724,0.226 -2.473,-0.132Z" style="fill:#071008;fill-rule:nonzero;" /><path d="M29.225,903.145c10.312,1.743 31.071,-3.977 37.847,8.615c1.114,2.075 0.778,4.691 1.601,6.907c4.66,12.702 6.621,40.636 18.816,47.469c3.358,1.882 8.236,1.433 11.884,1.717c7.921,0.651 15.812,1.599 23.726,2.079c8.076,0.493 19.313,-1.714 26.56,3.383c3.544,2.498 8.78,5.708 11.416,9.406c7.394,10.391 13.475,26.067 27.973,27.703c11.809,1.321 22.462,10.179 31.818,16.442c1.88,1.257 4.403,3.9 6.407,4.68c5.944,2.347 11.084,-1.72 16.642,-1.885c11.584,-0.354 20.951,-3.941 32.08,1.824c7.708,3.981 18.021,4.413 26.557,3.373c1.009,-0.119 6.215,-1.459 6.149,-3.666c-0.231,-7.733 -14.962,-6.801 -19.007,-7.075c-7.298,-0.514 -15.107,0.697 -22.29,-0.73c-6.12,-1.223 -12.142,-3.608 -18.256,-5.029c-8.572,-1.985 -17.49,-2.96 -25.911,-5.481c-7.953,-2.394 -15.365,-6.61 -22.6,-10.461c-7.642,-4.069 -15.847,-6.624 -23.294,-11.136c-12.238,-7.414 -24.172,-15.483 -36.202,-23.285c-4.429,-2.873 -9.803,-3.732 -14.107,-6.53c-14.183,-9.206 -29.069,-19.051 -39.948,-32.216c-6.068,-7.318 -14.875,-14.815 -22.206,-20.912c-3.034,-2.511 -6.729,-4.626 -8.592,-8.098l-27.064,2.905Z" style="fill:#071008;fill-rule:nonzero;" /><path d="M303.581,1029.079c-3.134,-1.495 -9.292,-1.617 -11.757,-1.665c-0.95,-0.021 -1.758,-0.038 -2.353,-0.082c-2.732,-0.192 -5.541,-0.123 -8.514,-0.062c-2.079,0.048 -4.19,0.097 -6.306,0.056c0.934,0.373 1.872,0.805 2.824,1.291c5.991,3.138 15.011,4.217 24.69,3.043c0.747,-0.107 2.294,-0.617 3.145,-1.076c-0.283,-0.615 -0.902,-1.11 -1.73,-1.505Zm-101.6,-18.045c5.695,2.717 10.999,6.423 15.91,9.862c1.626,1.136 3.216,2.246 4.766,3.29c0.85,0.565 1.696,1.273 2.595,2.022c1.02,0.863 2.441,2.044 3.189,2.337c2.674,1.052 5.311,0.253 8.368,-0.672c2.206,-0.667 4.49,-1.362 7.014,-1.438c2.96,-0.084 5.841,-0.406 8.619,-0.712c2.713,-0.305 5.456,-0.605 8.261,-0.683c-1.419,-0.413 -2.822,-0.842 -4.206,-1.262c-2.78,-0.846 -5.411,-1.653 -8.08,-2.279c-3.308,-0.762 -6.769,-1.389 -10.116,-2.002c-5.272,-0.955 -10.726,-1.949 -15.996,-3.527c-7.365,-2.218 -14.167,-5.87 -20.746,-9.401l-2.433,-1.305c-3.216,-1.71 -6.638,-3.19 -9.955,-4.621c-4.473,-1.942 -9.103,-3.942 -13.502,-6.609c-1.937,-1.172 -3.871,-2.366 -5.802,-3.568c5.042,8.045 10.532,15.735 19.545,16.747c4.382,0.49 8.574,1.914 12.569,3.82Zm-129.861,-92.266c1.244,3.713 2.289,8.348 3.391,13.217c2.74,12.114 6.156,27.191 13.554,31.336c1.84,1.022 4.868,1.114 7.537,1.188c1.06,0.026 2.084,0.058 3.025,0.131c3.163,0.261 6.321,0.567 9.472,0.871c4.656,0.453 9.482,0.916 14.2,1.206c2.014,0.121 4.296,0.066 6.717,0.005c0.09,-0.005 0.187,-0.007 0.284,-0.008c-1.708,-0.695 -3.409,-1.49 -5.027,-2.542c-12.987,-8.427 -29.148,-18.92 -40.67,-32.864c-3.478,-4.195 -7.891,-8.46 -12.482,-12.538Zm14.475,50.534c-0.228,-0.109 -0.46,-0.227 -0.678,-0.356c-9.907,-5.542 -13.513,-21.477 -16.696,-35.531c-1.182,-5.219 -2.297,-10.143 -3.579,-13.643c-0.486,-1.312 -0.656,-2.633 -0.807,-3.793c-0.133,-1.063 -0.264,-2.062 -0.602,-2.695c-3.897,-7.242 -14.622,-6.927 -24.082,-6.649c-4.219,0.123 -8.202,0.239 -11.464,-0.317c-1.759,-0.287 -2.936,-1.961 -2.643,-3.717c0.3,-1.753 1.961,-2.936 3.723,-2.64c2.627,0.445 6.304,0.335 10.196,0.224c4.17,-0.123 8.737,-0.256 13.103,0.251c-0.074,-1.219 0.549,-2.426 1.7,-3.045c1.57,-0.843 3.525,-0.246 4.368,1.324c1.067,1.989 3.147,3.565 5.354,5.226c0.829,0.627 1.664,1.258 2.448,1.912c7.708,6.413 16.446,13.869 22.637,21.334c10.892,13.187 26.595,23.382 39.216,31.57c1.857,1.206 4.042,2.04 6.355,2.911c2.572,0.979 5.236,1.986 7.753,3.618c1.893,1.231 3.785,2.461 5.675,3.699c1.016,0.469 2.002,1.019 2.947,1.686c0.585,0.415 1.22,0.846 1.875,1.302c1.184,0.805 2.462,1.678 3.733,2.621c7.186,4.708 14.537,9.47 21.886,13.92c4.021,2.438 8.246,4.262 12.723,6.197c3.428,1.483 6.973,3.023 10.421,4.851l2.459,1.317c6.289,3.384 12.8,6.874 19.551,8.903c4.92,1.475 10.189,2.437 15.289,3.366c3.422,0.624 6.957,1.263 10.421,2.067c2.89,0.667 5.745,1.541 8.509,2.387c3.329,1.02 6.47,1.982 9.653,2.621c3.997,0.795 8.261,0.693 12.78,0.593c2.983,-0.065 6.072,-0.135 9.099,0.077c0.511,0.036 1.209,0.049 2.042,0.062c6.384,0.134 19.681,0.397 19.968,10.142c0.172,5.61 -8.901,6.953 -8.994,6.965c-6.418,0.778 -18.645,1.337 -28.426,-3.713c-7.284,-3.763 -13.804,-3.057 -21.355,-2.22c-2.907,0.325 -5.914,0.659 -9.135,0.754c-1.672,0.05 -3.457,0.591 -5.339,1.165c-3.674,1.111 -7.842,2.371 -12.589,0.498c-1.731,-0.682 -3.387,-2.056 -4.981,-3.392c-0.761,-0.635 -1.476,-1.232 -2.032,-1.609c-1.596,-1.065 -3.222,-2.201 -4.881,-3.368c-7.731,-5.408 -16.5,-11.543 -25.506,-12.551c-12.993,-1.471 -19.778,-12.435 -25.755,-22.109c-1.538,-2.477 -2.986,-4.824 -4.486,-6.931c-1.143,-1.609 -3.033,-3.215 -5.021,-4.699c-1.396,-0.914 -2.792,-1.828 -4.175,-2.735c-1.256,-0.823 -2.517,-1.649 -3.779,-2.475c-4.27,-1.797 -9.861,-1.648 -15.294,-1.512c-2.56,0.067 -4.981,0.128 -7.276,-0.007c-4.834,-0.298 -9.712,-0.769 -14.429,-1.228c-3.119,-0.304 -6.238,-0.608 -9.365,-0.86c-0.831,-0.069 -1.742,-0.087 -2.683,-0.112c-3.179,-0.093 -6.75,-0.188 -9.832,-1.658Z" style="fill:#071008;fill-rule:nonzero;" /><path d="M265.829,489.893c-0.097,-0.014 -0.198,-0.038 -0.308,-0.059c-0.081,-0.015 -0.139,-0.026 -0.175,-0.035c0.084,0.024 0.25,0.063 0.483,0.094Zm-0.493,-0.091c-0.146,-0.013 0.228,0.093 0.15,0.055c-0.019,-0.009 -0.059,-0.028 -0.15,-0.055Zm0.609,0.115c-2.016,-0.018 -23.508,1.153 -41.631,56.215c-12.146,36.931 -22.349,61.557 -30.55,81.347c-8.244,19.898 -14.201,34.28 -18.245,51.612c-0.829,3.548 -0.761,5.62 -0.617,6.609c5.128,0.67 20.614,-5.717 32.238,-23.091c11.209,-16.739 15.404,-30.665 20.263,-46.786c4.7,-15.588 10.024,-33.255 22.539,-54.459c20.508,-34.758 25.817,-58.967 21.987,-67.538c-0.461,-1.012 -1.284,-2.876 -5.982,-3.91Zm-104.61,222.829c-6.126,-2.922 -21.481,-13.175 -15.115,-40.488c4.604,-19.73 11.287,-35.869 19.754,-56.3c8.009,-19.322 17.972,-43.375 29.766,-79.234c27.365,-83.139 69.997,-77.545 75.709,-76.388c16.752,3.352 24.437,13.385 27.937,21.206c11.613,25.962 -6.39,66.05 -23.539,95.107c-10.664,18.079 -15.027,32.541 -19.645,47.856c-5.09,16.891 -10.349,34.356 -24.063,54.836c-18.647,27.87 -49.397,42.711 -69.995,33.773c-0.244,-0.108 -0.515,-0.229 -0.808,-0.369Z" style="fill:#071008;fill-rule:nonzero;" /><path d="M464.075,568.648c-31.376,20.11 1.971,45.001 -9.14,78.138c-11.112,33.136 -45.72,85.998 -47.376,118.966c-1.656,32.951 -0.125,33.682 -10.088,68.318c-9.954,34.617 19.84,-12.11 33.683,-41.128c13.846,-29.024 17.67,14.053 40.318,-29.515c22.664,-43.569 13.431,-51.716 38.526,-106.301c25.107,-54.594 9.434,-123.946 -45.923,-88.478Z" style="fill:#071008;fill-rule:nonzero;" /><path d="M466.739,572.807c-15.073,9.664 -12.472,19.672 -8.532,34.823c3.084,11.863 6.582,25.306 1.407,40.732c-4.247,12.677 -11.697,27.842 -19.58,43.896c-12.448,25.356 -26.557,54.095 -27.546,73.741c-0.251,5.088 -0.43,9.402 -0.592,13.197c-0.828,19.963 -1.079,25.923 -8.672,52.722c6.892,-10.071 16.371,-26.22 23.471,-41.103c6.748,-14.147 13.133,-15.238 21.246,-12.407c2.805,0.978 4.13,1.37 6.118,0.288c2.478,-1.338 6.755,-5.474 13.032,-17.542c11.17,-21.47 14.352,-33.926 18.044,-48.34c3.631,-14.203 7.754,-30.29 20.376,-57.755c15.223,-33.103 14.807,-72.627 -0.922,-86.306c-11.045,-9.613 -26.678,-3.103 -37.851,4.054Zm-72.735,277.856c-5.663,-2.701 -3.142,-11.49 -1.279,-17.961c8.258,-28.698 8.456,-33.539 9.305,-53.917c0.155,-3.814 0.339,-8.157 0.593,-13.284c1.09,-21.67 15.053,-50.103 28.543,-77.593c7.74,-15.755 15.043,-30.629 19.086,-42.692c4.235,-12.635 1.269,-24.057 -1.607,-35.1c-4.103,-15.78 -8.343,-32.098 12.766,-45.626c26.726,-17.121 42.584,-9.348 49.661,-3.188c19.396,16.876 20.9,59.87 3.414,97.885c-12.249,26.65 -16.251,42.284 -19.78,56.071c-3.68,14.388 -7.161,27.974 -18.851,50.451c-12.111,23.292 -20.595,25.717 -31.162,22.028c-1.947,-0.681 -2.866,-0.951 -3.449,-0.701c-0.686,0.297 -2.598,1.673 -5.632,8.033c-5.378,11.274 -13.085,25.132 -20.114,36.145c-12.001,18.801 -16.477,21.377 -20.969,19.675c-0.182,-0.071 -0.355,-0.145 -0.524,-0.226Z" style="fill:#071008;fill-rule:nonzero;" /><path d="M93.197,751.684c9.39,30.069 34.417,51.775 54.718,103.913c20.314,52.127 55.583,56.337 89.8,57.101c34.204,0.774 46.218,3.729 80.631,16.641c34.41,12.919 90.341,5.643 126.655,-30.654c36.314,-36.297 66.426,-86.223 68.749,-67.181c2.333,19.039 -77.161,103.981 -130.232,112.59c-53.081,8.612 -75.951,-7.201 -107.734,-2.285c-31.786,4.923 -40.557,27.618 -82.416,-9.429c-41.846,-37.041 -41.234,-34.349 -70.66,-77.888c-29.426,-43.539 -48.054,-162.153 -29.511,-102.807Z" style="fill:#071008;fill-rule:nonzero;" /><path d="M508.732,833.773c-5.115,4.232 -14.712,15.932 -22.686,25.655c-10.56,12.881 -23.711,28.91 -37.553,42.753c-4.702,4.692 -9.704,8.922 -14.917,12.69c10.627,-7.521 21.599,-16.535 32.45,-26.757c26.427,-24.895 41.112,-46.591 42.706,-54.342Zm-411.848,-61.108c6.387,26.237 17.196,60.239 29.92,79.06c25.87,38.283 27.66,39.865 57.603,66.172c3.641,3.201 7.685,6.762 12.236,10.789c28.404,25.141 39.262,21.025 55.708,14.807c6.395,-2.421 13.649,-5.168 22.681,-6.563c14.504,-2.249 27.34,-0.381 40.93,1.599c17.548,2.555 37.43,5.448 66.762,0.69c13.03,-2.111 29.286,-9.692 46.658,-21.443c-36.777,24.373 -82.967,27.377 -112.769,16.184c-33.431,-12.54 -44.732,-15.547 -79.007,-16.323c-17.634,-0.396 -35.484,-1.864 -51.593,-9.549c-16.913,-8.06 -31.9,-22.977 -42.703,-50.705c-10.681,-27.43 -22.58,-46.121 -33.077,-62.616c-4.916,-7.721 -9.476,-14.88 -13.35,-22.103Zm118.079,180.871c-7.11,-3.392 -15.228,-8.928 -24.864,-17.453c-4.544,-4.024 -8.579,-7.572 -12.216,-10.763c-30.216,-26.557 -32.678,-28.724 -59.269,-68.062c-13.667,-20.231 -23.845,-53.78 -28.694,-71.972c-3.121,-11.736 -5.754,-23.488 -7.405,-33.09c-2.708,-15.755 -1.501,-17.731 -0.614,-19.171c1.116,-1.819 3.097,-2.786 5.169,-2.534c3.457,0.433 5.414,2.335 10.839,19.721c4.178,13.36 11.812,25.361 20.66,39.261c10.744,16.868 22.915,35.993 33.946,64.334c18.906,48.488 51.139,53.193 85.318,53.955c35.558,0.804 48.098,4.146 82.251,16.95c32.378,12.166 85.948,5.947 121.425,-29.518c13.501,-13.494 25.934,-28.658 36.905,-42.031c19.943,-24.316 27.207,-32.618 34.487,-30.505c2.247,0.656 5.067,2.609 5.756,8.242c1.835,15.018 -27.963,47.551 -45.858,64.405c-15.156,14.281 -54.131,48.092 -88.489,53.66c-30.835,5.009 -51.518,1.998 -69.768,-0.66c-13.39,-1.948 -24.96,-3.635 -37.995,-1.614c-8.015,1.24 -14.458,3.678 -20.695,6.038c-12.472,4.714 -23.747,8.982 -40.886,0.807Z" style="fill:#071008;fill-rule:nonzero;" /><path d="M-14.343,521.589c-1.219,-0.581 -1.989,-1.901 -1.812,-3.312c0.821,-6.6 5.252,-13.341 9.169,-19.288c1.599,-2.429 3.11,-4.724 4.158,-6.704c19.838,-37.309 53.36,-61.819 85.783,-85.517l3.107,-2.27c1.44,-1.057 3.458,-0.742 4.508,0.695c1.057,1.44 0.742,3.458 -0.695,4.508l-3.11,2.276c-31.837,23.274 -64.76,47.333 -83.896,83.338c-1.189,2.241 -2.781,4.657 -4.468,7.22c-3.524,5.358 -7.516,11.429 -8.154,16.541c-0.219,1.767 -1.833,3.021 -3.601,2.802c-0.356,-0.042 -0.684,-0.142 -0.99,-0.288Z" style="fill:#071008;fill-rule:nonzero;" /><path d="M137.876,374.579c-0.306,-0.146 -0.597,-0.341 -0.847,-0.588c-1.282,-1.236 -1.323,-3.279 -0.088,-4.562c5.906,-6.142 16.021,-8.044 25.88,-9.461c1.762,-0.256 3.393,0.97 3.648,2.732c0.252,1.768 -0.967,3.402 -2.729,3.658c-6.467,0.931 -17.286,2.481 -22.15,7.545c-0.992,1.023 -2.496,1.257 -3.714,0.676Z" style="fill:#071008;fill-rule:nonzero;" /><path d="M276.527,962.321c-0.867,-0.413 -1.543,-1.208 -1.766,-2.218c-0.384,-1.743 0.717,-3.465 2.457,-3.843c12.563,-2.774 25.163,-0.044 37.345,2.592c7.727,1.678 15.716,3.41 23.406,3.622c50.77,1.397 87.256,-9.204 118.319,-34.375c1.381,-1.117 3.41,-0.909 4.54,0.478c1.117,1.381 0.906,3.416 -0.478,4.54c-32.341,26.209 -70.144,37.254 -122.558,35.8c-8.294,-0.221 -16.579,-2.021 -24.597,-3.758c-12.036,-2.606 -23.404,-5.069 -34.587,-2.604c-0.733,0.162 -1.455,0.066 -2.081,-0.233Z" style="fill:#071008;fill-rule:nonzero;" /><path d="M495.814,902.021c-0.554,-0.264 -1.033,-0.685 -1.37,-1.253c-0.92,-1.527 -0.42,-3.512 1.103,-4.425c5.343,-3.203 9.108,-8.294 13.094,-13.68c3.302,-4.473 6.723,-9.096 11.212,-12.738c1.384,-1.124 3.41,-0.909 4.533,0.475c1.124,1.384 0.913,3.419 -0.475,4.533c-3.85,3.123 -6.88,7.229 -10.084,11.564c-4.19,5.665 -8.509,11.516 -14.961,15.381c-0.964,0.58 -2.107,0.595 -3.052,0.144Z" style="fill:#071008;fill-rule:nonzero;" /><path d="M393.744,1037.996c-0.775,-0.37 -1.402,-1.053 -1.683,-1.939c-0.542,-1.698 0.397,-3.514 2.099,-4.047c11.834,-3.762 24.938,-6.078 37.607,-8.322c7.461,-1.32 14.511,-2.565 21.061,-4.056c8.844,-2.005 16.471,-5.334 24.544,-8.858c5.911,-2.58 12.013,-5.244 18.64,-7.347c1.698,-0.542 3.511,0.403 4.047,2.098c0.542,1.698 -0.397,3.515 -2.092,4.05c-6.305,2 -12.258,4.6 -18.014,7.109c-7.993,3.491 -16.258,7.099 -25.693,9.238c-6.705,1.529 -13.825,2.788 -21.364,4.12c-12.467,2.204 -25.355,4.488 -36.788,8.113c-0.812,0.261 -1.647,0.182 -2.364,-0.16Z" style="fill:#071008;fill-rule:nonzero;" /><path d="M408.658,1045.719c-0.88,-0.42 -1.563,-1.234 -1.773,-2.27c-0.352,-1.744 0.772,-3.447 2.526,-3.803c4.427,-0.896 8.861,-1.773 13.292,-2.643c12.327,-2.431 25.072,-4.951 37.477,-7.864c1.74,-0.41 3.471,0.672 3.878,2.402c0.41,1.74 -0.665,3.474 -2.402,3.878c-12.521,2.938 -25.321,5.472 -37.699,7.91c-4.424,0.873 -8.852,1.753 -13.276,2.642c-0.708,0.142 -1.411,0.039 -2.023,-0.253Z" style="fill:#071008;fill-rule:nonzero;" /><path d="M601.957,770.621c0.578,1.588 0.429,2.773 -0.338,4.214c-0.918,1.722 -0.003,3.998 1.704,4.813c1.831,0.873 3.892,0.025 4.813,-1.704c1.585,-2.988 1.787,-6.563 0.627,-9.732c-1.596,-4.369 -8.407,-1.963 -6.805,2.409Z" style="fill:#071008;fill-rule:nonzero;" /><path d="M612.173,785.31c4.19,1.999 7.305,-4.515 3.109,-6.516c-4.197,-2.002 -7.312,4.511 -3.109,6.516Z" style="fill:#071008;fill-rule:nonzero;" /><path d="M603.618,794.188c4.19,1.999 7.305,-4.515 3.109,-6.516c-4.197,-2.002 -7.312,4.511 -3.109,6.516Z" style="fill:#071008;fill-rule:nonzero;" /><path d="M609.839,806.77c4.207,-3.201 7.571,-7.051 10.229,-11.615c2.338,-4.012 -4.188,-7.101 -6.516,-3.109c-1.991,3.418 -4.623,6.354 -7.766,8.75c-3.691,2.807 0.35,8.79 4.054,5.973Z" style="fill:#071008;fill-rule:nonzero;" /><path d="M625.872,771.686c4.19,1.999 7.305,-4.515 3.109,-6.516c-4.197,-2.002 -7.312,4.511 -3.109,6.516Z" style="fill:#071008;fill-rule:nonzero;" /><path d="M620.33,786.321c4.19,1.999 7.305,-4.515 3.109,-6.516c-4.197,-2.002 -7.312,4.511 -3.109,6.516Z" style="fill:#071008;fill-rule:nonzero;" /><path d="M592.214,793.947c2.092,0.998 3.653,-2.257 1.554,-3.258c-2.098,-1.001 -3.659,2.254 -1.554,3.258Z" style="fill:#071008;fill-rule:nonzero;" /><path d="M606.02,786.134c2.092,0.998 3.653,-2.257 1.554,-3.258c-2.098,-1.001 -3.659,2.254 -1.554,3.258Z" style="fill:#071008;fill-rule:nonzero;" /><path d="M601.942,785.628c2.092,0.998 3.653,-2.257 1.554,-3.258c-2.098,-1.001 -3.659,2.254 -1.554,3.258Z" style="fill:#071008;fill-rule:nonzero;" /><path d="M595.517,784.004c2.092,0.998 3.653,-2.257 1.554,-3.258c-2.098,-1.001 -3.659,2.254 -1.554,3.258Z" style="fill:#071008;fill-rule:nonzero;" /><path d="M590.212,780.033c2.092,0.998 3.653,-2.257 1.554,-3.258c-2.098,-1.001 -3.659,2.254 -1.554,3.258Z" style="fill:#071008;fill-rule:nonzero;" /><path d="M590.556,767.238c2.092,0.998 3.653,-2.257 1.554,-3.258c-2.098,-1.001 -3.659,2.254 -1.554,3.258Z" style="fill:#071008;fill-rule:nonzero;" /><path d="M603.857,763.504c2.092,0.998 3.653,-2.257 1.554,-3.258c-2.098,-1.001 -3.659,2.254 -1.554,3.258Z" style="fill:#071008;fill-rule:nonzero;" /><path d="M553.183,758.049c2.092,0.998 3.653,-2.257 1.554,-3.258c-2.098,-1.001 -3.659,2.254 -1.554,3.258Z" style="fill:#071008;fill-rule:nonzero;" /><path d="M553.249,824.316c2.092,0.998 3.653,-2.257 1.554,-3.258c-2.098,-1.001 -3.659,2.254 -1.554,3.258Z" style="fill:#071008;fill-rule:nonzero;" /><path d="M604.354,853.014c2.092,0.998 3.653,-2.257 1.554,-3.258c-2.098,-1.001 -3.659,2.254 -1.554,3.258Z" style="fill:#071008;fill-rule:nonzero;" /><path d="M605.763,834.968c2.092,0.998 3.653,-2.257 1.554,-3.258c-2.098,-1.001 -3.659,2.254 -1.554,3.258Z" style="fill:#071008;fill-rule:nonzero;" /><path d="M612.639,829.609c2.092,0.998 3.653,-2.257 1.554,-3.258c-2.098,-1.001 -3.659,2.254 -1.554,3.258Z" style="fill:#071008;fill-rule:nonzero;" /><path d="M615.872,822.831c-0.391,-0.187 -0.782,-0.373 -1.173,-0.56c-0.854,-0.407 -2.026,-0.046 -2.406,0.852c-0.384,0.905 -0.06,1.971 0.852,2.406c0.391,0.187 0.782,0.373 1.173,0.56c0.847,0.404 2.026,0.046 2.406,-0.852c0.381,-0.898 0.06,-1.971 -0.852,-2.406Z" style="fill:#071008;fill-rule:nonzero;" /><path d="M596.562,808.98c2.092,0.998 3.653,-2.257 1.554,-3.258c-2.098,-1.001 -3.659,2.254 -1.554,3.258Z" style="fill:#071008;fill-rule:nonzero;" /><path d="M591.87,806.742c2.092,0.998 3.653,-2.257 1.554,-3.258c-2.098,-1.001 -3.659,2.254 -1.554,3.258Z" style="fill:#071008;fill-rule:nonzero;" /><path d="M595.035,802.22c1.937,-0.036 3.874,-0.072 5.811,-0.108c2.324,-0.043 2.016,-3.638 -0.309,-3.595c-1.927,0.033 -3.871,0.065 -5.801,0.104c-2.324,0.043 -2.019,3.645 0.299,3.598Z" style="fill:#071008;fill-rule:nonzero;" /><path d="M603.384,800.715c2.092,0.998 3.653,-2.257 1.554,-3.258c-2.098,-1.001 -3.659,2.254 -1.554,3.258Z" style="fill:#071008;fill-rule:nonzero;" /><path d="M608.147,796.7c-0.205,-0.578 -0.409,-1.155 -0.613,-1.733c-0.31,-0.892 -1.396,-1.466 -2.3,-1.097c-0.907,0.359 -1.435,1.347 -1.097,2.3c0.205,0.578 0.409,1.155 0.613,1.733c0.31,0.892 1.397,1.466 2.3,1.097c0.91,-0.366 1.438,-1.354 1.097,-2.3Z" style="fill:#071008;fill-rule:nonzero;" /><path d="M599.144,791.493c2.092,0.998 3.653,-2.257 1.554,-3.258c-2.098,-1.001 -3.659,2.254 -1.554,3.258Z" style="fill:#071008;fill-rule:nonzero;" /><path d="M596.675,788.972c-0.128,2.331 -0.249,4.665 -0.374,6.989c-0.053,0.983 0.416,1.894 1.463,2.098c0.865,0.165 2.042,-0.49 2.091,-1.466c0.125,-2.324 0.246,-4.658 0.371,-6.982c0.053,-0.983 -0.42,-1.904 -1.463,-2.098c-0.865,-0.165 -2.042,0.49 -2.088,1.46Z" style="fill:#071008;fill-rule:nonzero;" /><path d="M597.014,801.996c2.092,0.998 3.653,-2.257 1.554,-3.258c-2.098,-1.001 -3.659,2.254 -1.554,3.258Z" style="fill:#071008;fill-rule:nonzero;" /><path d="M597.121,807.807c2.092,0.998 3.653,-2.257 1.554,-3.258c-2.098,-1.001 -3.659,2.254 -1.554,3.258Z" style="fill:#071008;fill-rule:nonzero;" /><path d="M602.48,814.683c2.092,0.998 3.653,-2.257 1.554,-3.258c-2.098,-1.001 -3.659,2.254 -1.554,3.258Z" style="fill:#071008;fill-rule:nonzero;" /><path d="M614.049,811.562c2.092,0.998 3.653,-2.257 1.554,-3.258c-2.098,-1.001 -3.659,2.254 -1.554,3.258Z" style="fill:#071008;fill-rule:nonzero;" /><path d="M616.395,812.681c2.092,0.998 3.653,-2.257 1.554,-3.258c-2.098,-1.001 -3.659,2.254 -1.554,3.258Z" style="fill:#071008;fill-rule:nonzero;" /><path d="M620.428,801.207c3.141,1.498 5.479,-3.386 2.331,-4.887c-3.148,-1.501 -5.485,3.383 -2.331,4.887Z" style="fill:#071008;fill-rule:nonzero;" /><path d="M619.977,808.191c3.141,1.498 5.479,-3.386 2.331,-4.887c-3.147,-1.501 -5.485,3.383 -2.331,4.887Z" style="fill:#071008;fill-rule:nonzero;" /><path d="M611.604,795.557c3.141,1.498 5.479,-3.386 2.331,-4.887c-3.147,-1.501 -5.485,3.383 -2.331,4.887Z" style="fill:#071008;fill-rule:nonzero;" /><path d="M611.443,786.841c3.141,1.498 5.479,-3.386 2.331,-4.887c-3.148,-1.501 -5.485,3.383 -2.331,4.887Z" style="fill:#071008;fill-rule:nonzero;" /><path d="M615.306,775.725c3.141,1.498 5.479,-3.386 2.331,-4.887c-3.148,-1.501 -5.485,3.383 -2.331,4.887Z" style="fill:#071008;fill-rule:nonzero;" /><path d="M626.637,791.21c3.141,1.498 5.479,-3.386 2.331,-4.887c-3.148,-1.501 -5.485,3.383 -2.331,4.887Z" style="fill:#071008;fill-rule:nonzero;" /><path d="M620.934,797.128c3.141,1.498 5.479,-3.386 2.331,-4.887c-3.148,-1.501 -5.485,3.383 -2.331,4.887Z" style="fill:#071008;fill-rule:nonzero;" /><path d="M623.37,795.291c0.187,-0.391 0.373,-0.782 0.56,-1.173c0.298,-0.626 0.339,-1.414 0.107,-2.069c-0.222,-0.626 -0.767,-1.278 -1.385,-1.541c-0.648,-0.269 -1.402,-0.381 -2.069,-0.107c-0.673,0.271 -1.227,0.727 -1.541,1.385c-0.187,0.391 -0.373,0.782 -0.56,1.173c-0.298,0.626 -0.348,1.418 -0.107,2.069c0.218,0.632 0.757,1.281 1.385,1.541c0.645,0.275 1.396,0.378 2.069,0.107c0.663,-0.267 1.223,-0.72 1.54,-1.385Z" style="fill:#071008;fill-rule:nonzero;" /><path d="M620.826,791.317c3.141,1.498 5.479,-3.386 2.331,-4.887c-3.147,-1.501 -5.485,3.383 -2.331,4.887Z" style="fill:#071008;fill-rule:nonzero;" /><path d="M613.789,787.96c3.141,1.498 5.479,-3.386 2.331,-4.887c-3.148,-1.501 -5.485,3.383 -2.331,4.887Z" style="fill:#071008;fill-rule:nonzero;" /><path d="M604.964,782.311c3.141,1.498 5.479,-3.386 2.331,-4.887c-3.148,-1.501 -5.485,3.383 -2.331,4.887Z" style="fill:#071008;fill-rule:nonzero;" /><path d="M593.848,778.448c3.141,1.498 5.479,-3.386 2.331,-4.887c-3.148,-1.501 -5.485,3.383 -2.331,4.887Z" style="fill:#071008;fill-rule:nonzero;" /><path d="M623.291,777.094c0.391,0.187 0.782,0.373 1.173,0.56c0.847,0.404 2.026,0.046 2.406,-0.852c0.381,-0.898 0.06,-1.971 -0.852,-2.406c-0.391,-0.187 -0.782,-0.373 -1.173,-0.56c-0.854,-0.407 -2.026,-0.046 -2.406,0.852c-0.384,0.905 -0.06,1.971 0.852,2.406Z" style="fill:#071008;fill-rule:nonzero;" /><path d="M616.975,781.281c2.092,0.998 3.653,-2.257 1.554,-3.258c-2.098,-1.001 -3.659,2.254 -1.554,3.258Z" style="fill:#071008;fill-rule:nonzero;" /><path d="M608.466,770.51c3.947,3.499 6.48,8.115 7.236,13.339c0.333,2.287 3.932,2.004 3.598,-0.299c-0.892,-6.161 -3.803,-11.63 -8.469,-15.767c-1.743,-1.544 -4.105,1.193 -2.365,2.728Z" style="fill:#071008;fill-rule:nonzero;" /><path d="M616.212,784.708c2.912,-0.067 5.814,-0.13 8.719,-0.2c2.321,-0.053 2.015,-3.654 -0.299,-3.599c-2.905,0.07 -5.814,0.13 -8.719,0.2c-2.321,0.053 -2.015,3.654 0.299,3.598Z" style="fill:#071008;fill-rule:nonzero;" /><path d="M627.187,799.111c2.092,0.998 3.653,-2.257 1.554,-3.258c-2.098,-1.001 -3.659,2.254 -1.554,3.258Z" style="fill:#071008;fill-rule:nonzero;" /><path d="M629.301,794.68c-1.388,-0.662 -2.776,-1.324 -4.161,-1.993c-0.802,-0.382 -1.804,-0.092 -2.271,0.653c-0.43,0.683 -0.441,1.83 0.315,2.342c1.975,1.342 4.169,1.757 6.489,1.12c0.938,-0.256 1.411,-1.431 1.097,-2.3c-0.341,-0.979 -1.359,-1.36 -2.3,-1.097c-0.954,0.257 -2.094,0.113 -2.921,-0.45c-0.653,1 -1.313,1.998 -1.963,2.991c1.385,0.669 2.773,1.331 4.161,1.993c2.089,1.004 3.649,-2.251 1.554,-3.258Z" style="fill:#071008;fill-rule:nonzero;" /><path d="M625.745,784.024c2.092,0.998 3.653,-2.257 1.554,-3.258c-2.098,-1.001 -3.659,2.254 -1.554,3.258Z" style="fill:#071008;fill-rule:nonzero;" /><path d="M585.67,807.664c3.141,1.498 5.479,-3.386 2.331,-4.887c-3.148,-1.501 -5.485,3.383 -2.331,4.887Z" style="fill:#071008;fill-rule:nonzero;" /><path d="M596.389,821.417c3.141,1.498 5.479,-3.386 2.331,-4.887c-3.148,-1.501 -5.485,3.383 -2.331,4.887Z" style="fill:#071008;fill-rule:nonzero;" /><path d="M625.228,809.256c3.141,1.498 5.479,-3.386 2.331,-4.887c-3.148,-1.501 -5.485,3.383 -2.331,4.887Z" style="fill:#071008;fill-rule:nonzero;" /><path d="M612.744,762.984c3.141,1.498 5.479,-3.386 2.331,-4.887c-3.147,-1.501 -5.485,3.383 -2.331,4.887Z" style="fill:#071008;fill-rule:nonzero;" /><path d="M605.997,743.926c3.141,1.498 5.479,-3.386 2.331,-4.887c-3.148,-1.501 -5.485,3.383 -2.331,4.887Z" style="fill:#071008;fill-rule:nonzero;" /><path d="M554.568,801.427c2.092,0.998 3.653,-2.257 1.554,-3.258c-2.098,-1.001 -3.659,2.254 -1.554,3.258Z" style="fill:#071008;fill-rule:nonzero;" /><path d="M564.038,789.625c2.092,0.998 3.653,-2.257 1.554,-3.258c-2.098,-1.001 -3.659,2.254 -1.554,3.258Z" style="fill:#071008;fill-rule:nonzero;" /><path d="M608.06,822.104c1.049,0.5 1.826,-1.129 0.777,-1.629c-1.049,-0.501 -1.826,1.129 -0.777,1.629Z" style="fill:#071008;fill-rule:nonzero;" /><path d="M605.462,807.426c1.049,0.5 1.826,-1.129 0.777,-1.629c-1.049,-0.501 -1.826,1.129 -0.777,1.629Z" style="fill:#071008;fill-rule:nonzero;" /><path d="M605.979,814.392c1.049,0.5 1.826,-1.129 0.777,-1.629c-1.049,-0.501 -1.826,1.129 -0.777,1.629Z" style="fill:#071008;fill-rule:nonzero;" /><path d="M614.208,819.278c1.049,0.5 1.826,-1.129 0.777,-1.629c-1.049,-0.501 -1.826,1.129 -0.777,1.629Z" style="fill:#071008;fill-rule:nonzero;" /><path d="M618.419,816.487c1.049,0.501 1.826,-1.129 0.777,-1.629c-1.049,-0.5 -1.826,1.129 -0.777,1.629Z" style="fill:#071008;fill-rule:nonzero;" /><path d="M591.746,820.082c1.049,0.501 1.826,-1.129 0.777,-1.629c-1.049,-0.5 -1.826,1.129 -0.777,1.629Z" style="fill:#071008;fill-rule:nonzero;" /><path d="M549.541,822.028c1.049,0.5 1.826,-1.129 0.777,-1.629c-1.049,-0.501 -1.826,1.129 -0.777,1.629Z" style="fill:#071008;fill-rule:nonzero;" /><path d="M551.298,812.306c0.782,0.373 1.564,0.746 2.346,1.119c1.049,0.5 1.826,-1.129 0.777,-1.629c-0.782,-0.373 -1.564,-0.746 -2.346,-1.119c-1.049,-0.501 -1.826,1.129 -0.777,1.629Z" style="fill:#071008;fill-rule:nonzero;" /><path d="M563.415,814.022c0.646,-0.012 1.291,-0.024 1.94,-0.042c0.484,-0.009 0.859,-0.51 0.825,-0.974c-0.045,-0.51 -0.49,-0.834 -0.977,-0.818c-0.646,0.012 -1.291,0.024 -1.937,0.036c-0.484,0.009 -0.866,0.507 -0.825,0.974c0.045,0.509 0.483,0.831 0.974,0.825Z" style="fill:#071008;fill-rule:nonzero;" /><path d="M584.429,843.47c1.049,0.5 1.826,-1.129 0.777,-1.629c-1.049,-0.501 -1.826,1.129 -0.777,1.629Z" style="fill:#071008;fill-rule:nonzero;" /><path d="M573.962,843.276c1.049,0.5 1.826,-1.129 0.777,-1.629c-1.049,-0.501 -1.826,1.129 -0.777,1.629Z" style="fill:#071008;fill-rule:nonzero;" /><path d="M566.78,832.171c1.049,0.501 1.826,-1.129 0.777,-1.629c-1.049,-0.5 -1.826,1.129 -0.777,1.629Z" style="fill:#071008;fill-rule:nonzero;" /><path d="M588.317,823.246c1.049,0.5 1.826,-1.129 0.777,-1.629c-1.049,-0.501 -1.826,1.129 -0.777,1.629Z" style="fill:#071008;fill-rule:nonzero;" /><path d="M627.038,840.677c-0.782,-0.373 -1.564,-0.746 -2.346,-1.119c-1.049,-0.501 -1.826,1.129 -0.777,1.629c0.782,0.373 1.564,0.746 2.346,1.119c1.049,0.5 1.826,-1.129 0.777,-1.629Z" style="fill:#071008;fill-rule:nonzero;" /><path d="M620.464,822.262c1.049,0.501 1.826,-1.129 0.777,-1.629c-1.049,-0.5 -1.826,1.129 -0.777,1.629Z" style="fill:#071008;fill-rule:nonzero;" /><path d="M626.734,811.246c-0.894,0.533 -1.789,1.067 -2.683,1.6c-1.003,0.593 0.019,2.089 1.016,1.493c0.894,-0.533 1.782,-1.07 2.677,-1.603c1.003,-0.593 -0.013,-2.086 -1.009,-1.489Z" style="fill:#071008;fill-rule:nonzero;" /><path d="M623.735,803.28c4.811,2.039 9.418,4.421 13.864,7.158c0.99,0.608 1.76,-1.024 0.777,-1.629c-4.446,-2.737 -9.053,-5.119 -13.864,-7.158c-1.064,-0.452 -1.848,1.174 -0.777,1.629Z" style="fill:#071008;fill-rule:nonzero;" /><path d="M1.438,737.493c1.421,0.678 2.484,-1.535 1.057,-2.216c-1.427,-0.681 -2.491,1.532 -1.057,2.216Z" style="fill:#071008;fill-rule:nonzero;" /><path d="M16.908,719.419c1.427,0.681 2.491,-1.532 1.057,-2.216c-1.421,-0.678 -2.484,1.535 -1.057,2.216Z" style="fill:#071008;fill-rule:nonzero;" /><path d="M-2.429,699.419c1.421,0.678 2.484,-1.535 1.057,-2.216c-1.427,-0.681 -2.491,1.532 -1.057,2.216Z" style="fill:#071008;fill-rule:nonzero;" /><path d="M-0.432,724.946c0.202,-0.072 0.395,-0.14 0.59,-0.214c0.295,-0.099 0.562,-0.34 0.699,-0.627c0.131,-0.274 0.166,-0.649 0.047,-0.937c-0.115,-0.295 -0.321,-0.569 -0.627,-0.699c-0.299,-0.127 -0.62,-0.16 -0.937,-0.047c-0.193,0.068 -0.395,0.14 -0.587,0.208c-0.298,0.106 -0.565,0.346 -0.699,0.627c-0.131,0.274 -0.162,0.659 -0.05,0.944c0.118,0.288 0.33,0.565 0.63,0.692c0.299,0.127 0.626,0.163 0.934,0.054Z" style="fill:#071008;fill-rule:nonzero;" /><path d="M-1.139,717.961c-0.335,-0.32 -0.668,-0.646 -1,-0.973c-0.457,-0.45 -1.341,-0.376 -1.732,0.126c-0.436,0.544 -0.371,1.247 0.126,1.732c0.332,0.327 0.668,0.646 1,0.973c0.457,0.45 1.334,0.373 1.732,-0.126c0.429,-0.547 0.364,-1.25 -0.126,-1.732Z" style="fill:#071008;fill-rule:nonzero;" /><path d="M-2.816,732.04c1.427,0.681 2.487,-1.541 1.06,-2.222c-1.427,-0.681 -2.487,1.541 -1.06,2.222Z" style="fill:#071008;fill-rule:nonzero;" /><path d="M-0.613,729.467c0.717,0.342 1.245,-0.766 0.528,-1.108c-0.71,-0.339 -1.239,0.769 -0.528,1.108Z" style="fill:#071008;fill-rule:nonzero;" /><path d="M2.216,732.777c0.71,0.339 1.245,-0.766 0.528,-1.108c-0.71,-0.339 -1.245,0.766 -0.528,1.108Z" style="fill:#071008;fill-rule:nonzero;" /><path d="M1.253,723.51c0.71,0.339 1.239,-0.769 0.528,-1.108c-0.717,-0.342 -1.245,0.766 -0.528,1.108Z" style="fill:#071008;fill-rule:nonzero;" /><path d="M-0.117,724.32c0.717,0.342 1.245,-0.766 0.528,-1.108c-0.71,-0.339 -1.239,0.769 -0.528,1.108Z" style="fill:#071008;fill-rule:nonzero;" /><path d="M-0.741,722.559c0.71,0.339 1.239,-0.769 0.528,-1.108c-0.717,-0.342 -1.245,0.766 -0.528,1.108Z" style="fill:#071008;fill-rule:nonzero;" /><path d="M-0.821,720.665c-0.397,-0.19 -0.795,-0.379 -1.193,-0.569c-0.717,-0.342 -1.245,0.766 -0.528,1.108c0.397,0.19 0.795,0.379 1.193,0.569c0.717,0.342 1.245,-0.766 0.528,-1.108Z" style="fill:#071008;fill-rule:nonzero;" /><path d="M-0.417,718.794c0.717,0.342 1.245,-0.766 0.528,-1.108c-0.71,-0.339 -1.239,0.769 -0.528,1.108Z" style="fill:#071008;fill-rule:nonzero;" /><path d="M1.376,716.041c-0.065,-0.199 -0.133,-0.392 -0.208,-0.587c-0.103,-0.305 -0.474,-0.498 -0.782,-0.373c-0.308,0.125 -0.489,0.455 -0.373,0.782c0.068,0.192 0.14,0.395 0.208,0.587c0.112,0.302 0.474,0.498 0.782,0.373c0.308,-0.125 0.492,-0.461 0.373,-0.782Z" style="fill:#071008;fill-rule:nonzero;" /><path d="M-1.701,713.286c0.71,0.339 1.239,-0.769 0.528,-1.108c-0.717,-0.342 -1.245,0.766 -0.528,1.108Z" style="fill:#071008;fill-rule:nonzero;" /><path d="M12.199,716.981c0.71,0.339 1.245,-0.766 0.528,-1.108c-0.71,-0.339 -1.245,0.766 -0.528,1.108Z" style="fill:#071008;fill-rule:nonzero;" /><path d="M7.601,718.019c-0.19,0.397 -0.382,0.802 -0.572,1.199c-0.339,0.71 0.766,1.245 1.108,0.528c0.19,-0.397 0.382,-0.802 0.572,-1.199c0.339,-0.71 -0.769,-1.239 -1.108,-0.528Z" style="fill:#071008;fill-rule:nonzero;" /><path d="M6.854,720.606c-0.062,0.13 -0.124,0.261 -0.19,0.397c-0.137,0.287 -0.016,0.688 0.29,0.818c0.306,0.13 0.672,0.017 0.818,-0.29c0.065,-0.137 0.127,-0.267 0.19,-0.397c0.14,-0.293 0.019,-0.695 -0.287,-0.825c-0.309,-0.123 -0.672,-0.017 -0.821,0.296Z" style="fill:#071008;fill-rule:nonzero;" /><path d="M0.99,719.953c0.71,0.339 1.245,-0.766 0.528,-1.108c-0.71,-0.339 -1.245,0.766 -0.528,1.108Z" style="fill:#071008;fill-rule:nonzero;" /><path d="M1.526,716.785c0.13,0.062 0.261,0.124 0.397,0.19c0.287,0.137 0.688,0.016 0.818,-0.29c0.13,-0.306 0.017,-0.672 -0.29,-0.818c-0.137,-0.065 -0.267,-0.127 -0.397,-0.19c-0.293,-0.14 -0.688,-0.016 -0.818,0.29c-0.13,0.306 -0.023,0.669 0.29,0.818Z" style="fill:#071008;fill-rule:nonzero;" /><path d="M4.067,715.549c0.717,0.342 1.245,-0.766 0.528,-1.108c-0.71,-0.339 -1.239,0.769 -0.528,1.108Z" style="fill:#071008;fill-rule:nonzero;" /><path d="M6.275,708.875c-0.13,-0.062 -0.267,-0.127 -0.397,-0.19c-0.293,-0.14 -0.688,-0.016 -0.818,0.29c-0.13,0.306 -0.023,0.669 0.29,0.818c0.13,0.062 0.267,0.127 0.397,0.19c0.287,0.137 0.688,0.016 0.818,-0.29c0.13,-0.306 0.023,-0.669 -0.29,-0.818Z" style="fill:#071008;fill-rule:nonzero;" /><path d="M1.792,710.056c0.717,0.342 1.245,-0.766 0.528,-1.108c-0.71,-0.339 -1.239,0.769 -0.528,1.108Z" style="fill:#071008;fill-rule:nonzero;" /><path d="M3.982,700.334c0.717,0.342 1.245,-0.766 0.528,-1.108c-0.71,-0.339 -1.239,0.769 -0.528,1.108Z" style="fill:#071008;fill-rule:nonzero;" /><path d="M4.72,701.47c-0.065,0.137 -0.127,0.267 -0.19,0.398c-0.14,0.293 -0.016,0.688 0.29,0.818c0.306,0.13 0.669,0.023 0.818,-0.29c0.062,-0.13 0.124,-0.261 0.19,-0.398c0.137,-0.287 0.016,-0.688 -0.29,-0.818c-0.306,-0.13 -0.669,-0.023 -0.818,0.29Z" style="fill:#071008;fill-rule:nonzero;" /><path d="M5.771,705.051c0.202,0.264 0.407,0.522 0.609,0.786c0.192,0.252 0.575,0.37 0.852,0.159c0.248,-0.185 0.373,-0.582 0.159,-0.852c-0.195,-0.261 -0.4,-0.519 -0.605,-0.777c-0.192,-0.252 -0.575,-0.37 -0.849,-0.165c-0.252,0.192 -0.373,0.582 -0.165,0.849Z" style="fill:#071008;fill-rule:nonzero;" /><path d="M-1.361,710.512c0.717,0.342 1.245,-0.766 0.528,-1.108c-0.71,-0.339 -1.239,0.769 -0.528,1.108Z" style="fill:#071008;fill-rule:nonzero;" /></g></g><path d="M566.667,137.5l0,266.667c0,9.199 -7.468,16.667 -16.667,16.667l-475,0c-9.199,0 -16.667,-7.468 -16.667,-16.667l0,-266.667c0,-9.199 7.468,-16.667 16.667,-16.667l475,0c9.199,0 16.667,7.468 16.667,16.667Z" style="fill:none;stroke:#5a6e3b;stroke-width:4.17px;" /><text x="198.608px" y="91.667px" style="font-family:'Arial-BoldMT', 'Arial', sans-serif;font-weight:700;font-size:33.333px;fill:#39ff14;">ØMQ SOCKET</text><text x="109.953px" y="483.333px" style="font-family:'Arial-BoldMT', 'Arial', sans-serif;font-weight:700;font-size:33.333px;fill:#ffd700;">PORT</text><text x="253.54px" y="483.333px" style="font-family:'Arial-BoldMT', 'Arial', sans-serif;font-weight:700;font-size:33.333px;fill:#ffd700;">PROT<tspan x="345.532px " y="483.333px ">O</tspan></text><text x="445.597px" y="483.333px" style="font-family:'Arial-BoldMT', 'Arial', sans-serif;font-weight:700;font-size:33.333px;fill:#ffd700;">BP</text><text x="209.717px" y="716.667px" style="font-family:'Arial-BoldMT', 'Arial', sans-serif;font-weight:700;font-size:33.333px;fill:#ffd700;">CV OUT (1-9)</text><text x="148.139px" y="775px" style="font-family:'ArialMT', 'Arial', sans-serif;font-size:29.167px;fill:#8b8e36;">1</text><text x="304.389px" y="775px" style="font-family:'ArialMT', 'Arial', sans-serif;font-size:29.167px;fill:#8b8e36;">2</text><text x="460.639px" y="775px" style="font-family:'ArialMT', 'Arial', sans-serif;font-size:29.167px;fill:#8b8e36;">3</text><text x="148.139px" y="920.833px" style="font-family:'ArialMT', 'Arial', sans-serif;font-size:29.167px;fill:#8b8e36;">4</text><text x="304.389px" y="920.833px" style="font-family:'ArialMT', 'Arial', sans-serif;font-size:29.167px;fill:#8b8e36;">5</text><text x="460.639px" y="920.833px" style="font-family:'ArialMT', 'Arial', sans-serif;font-size:29.167px;fill:#8b8e36;">6</text><text x="148.139px" y="1066.667px" style="font-family:'ArialMT', 'Arial', sans-serif;font-size:29.167px;fill:#8b8e36;">7</text><text x="304.389px" y="1066.667px" style="font-family:'ArialMT', 'Arial', sans-serif;font-size:29.167px;fill:#8b8e36;">8</text><text x="460.639px" y="1066.667px" style="font-family:'ArialMT', 'Arial', sans-serif;font-size:29.167px;fill:#8b8e36;">9</text><text x="189.331px" y="1258.333px" style="font-family:'Arial-BoldMT', 'Arial', sans-serif;font-weight:700;font-size:33.333px;fill:#ffd700;">POL<tspan x="254.793px 276.424px 285.685px " y="1258.333px 1258.333px 1258.333px ">Y M</tspan>IDI OUT</text><text x="112.5px" y="1433.333px" style="font-family:'ArialMT', 'Arial', sans-serif;font-size:29.167px;fill:#8b8e36;">PITCH</text><text x="273.877px" y="1433.333px" style="font-family:'ArialMT', 'Arial', sans-serif;font-size:29.167px;fill:#8b8e36;">GA<tspan x="313.853px 331.669px " y="1433.333px 1433.333px ">TE</tspan></text><text x="441.186px" y="1433.333px" style="font-family:'ArialMT', 'Arial', sans-serif;font-size:29.167px;fill:#8b8e36;">VEL</text><text x="227.407px" y="1525px" style="font-family:'Arial-BoldMT', 'Arial', sans-serif;font-weight:700;font-size:29.167px;fill:#39ff14;">discotemple</text></g></svg>